<?xml version="1.0" encoding="utf-8"?>
<!-- Generator: Adobe Illustrator 19.0.0, SVG Export Plug-In . SVG Version: 6.00 Build 0)  -->
<svg version="1.1" id="Layer_1" xmlns="http://www.w3.org/2000/svg" xmlns:xlink="http://www.w3.org/1999/xlink" x="0px" y="0px"
	 viewBox="0 0 792 612" style="enable-background:new 0 0 792 612;" xml:space="preserve">
<style type="text/css">
	.st0{fill:#25A4DE;}
	.st1{fill:none;stroke:#FFFFFF;stroke-width:17;stroke-miterlimit:10;}
	.st2{fill:#1B4073;}
	.st3{fill:#1A66B0;}
	.st4{fill:#084F8E;}
	.st5{fill:#5287C6;}
</style>
<g id="XMLID_2_">
	<g id="XMLID_41_">
		<path id="XMLID_45_" class="st0" d="M366.4,194c22.6,38.9,41.2,76.2,93.4,75.4c49-0.8,89.3-42.8,87.5-91.9
			c-1.1-28.7-15.2-64.3-42.4-76.9c-16.9-7.8-38.7-8.4-56.8-11.1c-29.1-4.4-58.2-8.7-87.3-13.1c-18.4-2.8-39.9-8.8-58.6-5.9
			c-30,4.6-45.8,30.5-63.2,52.4c8.4-0.2,18.7,1.7,27,3C308.6,132.3,344.8,156.8,366.4,194z"/>
		<path id="XMLID_44_" class="st0" d="M419.9,430.2c-22.6-38.9-41.2-76.2-93.4-75.4c-49,0.8-89.3,42.8-87.5,91.9
			c1.1,28.7,15.2,64.3,42.4,76.9c16.9,7.8,38.7,8.4,56.8,11.1c29.1,4.4,58.2,8.7,87.3,13.1c18.4,2.8,39.9,8.8,58.6,5.9
			c30-4.6,45.8-30.5,63.2-52.4c-8.4,0.2-18.7-1.7-27-3C477.7,491.9,441.5,467.4,419.9,430.2z"/>
		<path id="XMLID_43_" class="st0" d="M634.7,221.1c-4.6-30-30.5-45.8-52.4-63.2c0.2,8.4-1.7,18.7-3,27
			c-6.4,42.6-30.9,78.7-68.1,100.3c-38.9,22.6-76.2,41.2-75.4,93.4c0.8,49,42.8,89.3,91.9,87.5c28.7-1.1,64.3-15.2,76.9-42.4
			c7.8-16.9,8.4-38.7,11.1-56.8c4.4-29.1,8.7-58.2,13.1-87.3C631.6,261.4,637.6,239.8,634.7,221.1z"/>
		<path id="XMLID_42_" class="st0" d="M275.1,338.9c38.9-22.6,76.2-41.2,75.4-93.4c-0.8-49-42.8-89.3-91.9-87.5
			c-28.7,1.1-64.3,15.2-76.9,42.4c-7.8,16.9-8.4,38.7-11.1,56.8c-4.4,29.1-8.7,58.2-13.1,87.3c-2.8,18.4-8.8,39.9-5.9,58.6
			c4.6,30,30.5,45.8,52.4,63.2c-0.2-8.4,1.7-18.7,3-27C213.4,396.6,237.9,360.5,275.1,338.9z"/>
	</g>
	<g id="XMLID_36_">
		<path id="XMLID_40_" class="st1" d="M366.4,194c22.6,38.9,41.2,76.2,93.4,75.4c49-0.8,89.3-42.8,87.5-91.9
			c-1.1-28.7-15.2-64.3-42.4-76.9c-16.9-7.8-38.7-8.4-56.8-11.1c-29.1-4.4-58.2-8.7-87.3-13.1c-18.4-2.8-39.9-8.8-58.6-5.9
			c-30,4.6-45.8,30.5-63.2,52.4c8.4-0.2,18.7,1.7,27,3C308.6,132.3,344.8,156.8,366.4,194z"/>
		<path id="XMLID_39_" class="st1" d="M419.9,430.2c-22.6-38.9-41.2-76.2-93.4-75.4c-49,0.8-89.3,42.8-87.5,91.9
			c1.1,28.7,15.2,64.3,42.4,76.9c16.9,7.8,38.7,8.4,56.8,11.1c29.1,4.4,58.2,8.7,87.3,13.1c18.4,2.8,39.9,8.8,58.6,5.9
			c30-4.6,45.8-30.5,63.2-52.4c-8.4,0.2-18.7-1.7-27-3C477.7,491.9,441.5,467.4,419.9,430.2z"/>
		<path id="XMLID_38_" class="st1" d="M634.7,221.1c-4.6-30-30.5-45.8-52.4-63.2c0.2,8.4-1.7,18.7-3,27
			c-6.4,42.6-30.9,78.7-68.1,100.3c-38.9,22.6-76.2,41.2-75.4,93.4c0.8,49,42.8,89.3,91.9,87.5c28.7-1.1,64.3-15.2,76.9-42.4
			c7.8-16.9,8.4-38.7,11.1-56.8c4.4-29.1,8.7-58.2,13.1-87.3C631.6,261.4,637.6,239.8,634.7,221.1z"/>
		<path id="XMLID_37_" class="st1" d="M275.1,338.9c38.9-22.6,76.2-41.2,75.4-93.4c-0.8-49-42.8-89.3-91.9-87.5
			c-28.7,1.1-64.3,15.2-76.9,42.4c-7.8,16.9-8.4,38.7-11.1,56.8c-4.4,29.1-8.7,58.2-13.1,87.3c-2.8,18.4-8.8,39.9-5.9,58.6
			c4.6,30,30.5,45.8,52.4,63.2c-0.2-8.4,1.7-18.7,3-27C213.4,396.6,237.9,360.5,275.1,338.9z"/>
	</g>
	<g id="XMLID_31_">
		<path id="XMLID_35_" class="st2" d="M366.4,194c22.6,38.9,41.2,76.2,93.4,75.4c49-0.8,89.3-42.8,87.5-91.9
			c-1.1-28.7-15.2-64.3-42.4-76.9c-16.9-7.8-38.7-8.4-56.8-11.1c-29.1-4.4-58.2-8.7-87.3-13.1c-18.4-2.8-39.9-8.8-58.6-5.9
			c-30,4.6-45.8,30.5-63.2,52.4c8.4-0.2,18.7,1.7,27,3C308.6,132.3,344.8,156.8,366.4,194z"/>
		<path id="XMLID_34_" class="st3" d="M419.9,430.2c-22.6-38.9-41.2-76.2-93.4-75.4c-49,0.8-89.3,42.8-87.5,91.9
			c1.1,28.7,15.2,64.3,42.4,76.9c16.9,7.8,38.7,8.4,56.8,11.1c29.1,4.4,58.2,8.7,87.3,13.1c18.4,2.8,39.9,8.8,58.6,5.9
			c30-4.6,45.8-30.5,63.2-52.4c-8.4,0.2-18.7-1.7-27-3C477.7,491.9,441.5,467.4,419.9,430.2z"/>
		<path id="XMLID_33_" class="st4" d="M634.7,221.1c-4.6-30-30.5-45.8-52.4-63.2c0.2,8.4-1.7,18.7-3,27
			c-6.4,42.6-30.9,78.7-68.1,100.3c-38.9,22.6-76.2,41.2-75.4,93.4c0.8,49,42.8,89.3,91.9,87.5c28.7-1.1,64.3-15.2,76.9-42.4
			c7.8-16.9,8.4-38.7,11.1-56.8c4.4-29.1,8.7-58.2,13.1-87.3C631.6,261.4,637.6,239.8,634.7,221.1z"/>
		<path id="XMLID_32_" class="st5" d="M275.1,338.9c38.9-22.6,76.2-41.2,75.4-93.4c-0.8-49-42.8-89.3-91.9-87.5
			c-28.7,1.1-64.3,15.2-76.9,42.4c-7.8,16.9-8.4,38.7-11.1,56.8c-4.4,29.1-8.7,58.2-13.1,87.3c-2.8,18.4-8.8,39.9-5.9,58.6
			c4.6,30,30.5,45.8,52.4,63.2c-0.2-8.4,1.7-18.7,3-27C213.4,396.6,237.9,360.5,275.1,338.9z"/>
	</g>
</g>
</svg>
