<?xml version="1.0"?>
<svg xmlns="http://www.w3.org/2000/svg" viewBox="0 0 64 64" width="512px" height="512px"><g><script xmlns="" class="active-path" style=""/><g id="Database_Security" data-name="Database Security"><path d="M32,2C19.881,2,7,4.8,7,10V54c0,5.2,12.881,8,25,8s25-2.8,25-8V10C57,4.8,44.119,2,32,2Zm0,2c14.25,0,23,3.5,23,6s-8.75,6-23,6S9,12.505,9,10,17.75,4,32,4ZM9,27.289c2.886,2.186,8.484,3.558,14,4.2V37H21a3,3,0,0,0-3,3v4.668C11.8,43.337,9,41.4,9,40ZM43,39a1,1,0,0,1,1,1V54a1,1,0,0,1-1,1H21a1,1,0,0,1-1-1V40a1,1,0,0,1,1-1Zm-8-9.055c-1.912.073-4.088.073-6,0V28a1,1,0,0,1,1-1h4a1,1,0,0,1,1,1Zm-6,2c.954.036,1.945.06,3,.06s2.046-.024,3-.06V37H29ZM39,37H37V28a3,3,0,0,0-3-3H30a3,3,0,0,0-3,3v9H25V26a3,3,0,0,1,3-3h8a3,3,0,0,1,3,3ZM32,60C17.75,60,9,56.505,9,54V43.321c2.287,1.727,6.089,2.791,9,3.39V54a3,3,0,0,0,3,3H43a3,3,0,0,0,3-3V46.711c2.911-.6,6.713-1.663,9-3.39V54C55,56.505,46.25,60,32,60ZM46,44.668V40a3,3,0,0,0-3-3H41V31.492c5.516-.645,11.114-2.017,14-4.2V40C55,41.4,52.2,43.337,46,44.668ZM41,29.477V26a5.006,5.006,0,0,0-5-5H28a5.006,5.006,0,0,0-5,5v3.477C13.905,28.389,9,25.888,9,24V13.287C13.076,16.367,22.756,18,32,18s18.924-1.633,23-4.713V24C55,25.888,50.1,28.389,41,29.477Z" data-original="#000000" class="active-path" fill="#FFFFFF"/><path d="M31,48.858V53h2V48.858a4,4,0,1,0-2,0ZM32,43a2,2,0,1,1-2,2A2,2,0,0,1,32,43Z" data-original="#000000" class="active-path" fill="#FFFFFF"/></g></g> </svg>
