<?xml version="1.0"?>
<svg xmlns="http://www.w3.org/2000/svg" height="512px" viewBox="0 0 496 496" width="512px" class=""><g transform="matrix(1 0 0 1 0 0)"><script xmlns="" class="active-path" style=""/><path d="m304 384c13.230469 0 24-10.769531 24-24 0-10.414062-6.710938-19.214844-16-22.527344v-25.472656c0-22.054688-17.945312-40-40-40h-48c-22.054688 0-40 17.945312-40 40v25.472656c-9.289062 3.3125-16 12.113282-16 22.527344 0 13.230469 10.769531 24 24 24h10.800781c2.277344 6.425781 5.871094 12.214844 10.480469 17.054688-25.761719 5.015624-45.28125 27.738281-45.28125 54.945312v32c0 4.425781 3.585938 8 8 8h144c4.414062 0 8-3.574219 8-8v-32c0-27.207031-19.519531-49.929688-45.28125-54.945312 4.609375-4.839844 8.203125-10.628907 10.480469-17.054688zm0-16h-8v-16h8c4.40625 0 8 3.585938 8 8s-3.59375 8-8 8zm-56 32c-17.648438 0-32-14.351562-32-32v-16h8c12.894531 0 33.679688-7.007812 45.976562-18.992188 2.632813 4.25 6.039063 7.96875 10.023438 10.96875v24.023438c0 17.648438-14.351562 32-32 32zm22.238281 16-3.742187 18.71875-14.0625-9.375c-2.691406-1.800781-6.1875-1.800781-8.875 0l-14.0625 9.375-3.734375-18.71875zm-70.238281-104c0-13.230469 10.769531-24 24-24h48c13.230469 0 24 10.769531 24 24v22.632812c-9.3125-3.304687-16-12.199218-16-22.632812 0-4.425781-3.585938-8-8-8s-8 3.574219-8 8c0 11.128906-24.207031 24-40 24h-24zm-8 56c-4.40625 0-8-3.585938-8-8s3.59375-8 8-8h8v16zm120 88v24h-16v-16h-16v16h-64v-16h-16v16h-16v-24c0-17.105469 10.847656-31.617188 25.976562-37.328125l6.175782 30.894531c.519531 2.617188 2.320312 4.800782 4.785156 5.824219 2.453125 1.007813 5.277344.753906 7.503906-.734375l19.558594-13.039062 19.558594 13.039062c1.335937.886719 2.882812 1.34375 4.441406 1.34375 1.03125 0 2.078125-.199219 3.0625-.609375 2.464844-1.023437 4.257812-3.199219 4.785156-5.824219l6.175782-30.894531c15.128906 5.710937 25.976562 20.222656 25.976562 37.328125zm0 0" data-original="#000000" class="active-path" fill="#FFFFFF"/><path d="m440 160c-21.070312 0-39.449219 11.710938-49 28.953125l-68.40625-54.730469c6.238281-10.046875 10.496094-21.269531 12.300781-33.101562l50.785157-31.746094c6.023437 24.433594 28.054687 42.625 54.320312 42.625 30.878906 0 56-25.128906 56-56s-25.121094-56-56-56c-29.335938 0-53.425781 22.6875-55.769531 51.425781l-48.542969 30.34375c-3.222656-45.617187-41.273438-81.769531-87.6875-81.769531s-84.464844 36.152344-87.6875 81.769531l-48.542969-30.34375c-2.34375-28.738281-26.433593-51.425781-55.769531-51.425781-30.878906 0-56 25.128906-56 56s25.121094 56 56 56c26.265625 0 48.296875-18.191406 54.320312-42.625l50.785157 31.746094c1.804687 11.839844 6.0625 23.054687 12.300781 33.101562l-68.40625 54.730469c-9.550781-17.242187-27.929688-28.953125-49-28.953125-30.878906 0-56 25.128906-56 56s25.121094 56 56 56 56-25.128906 56-56c0-3.847656-.390625-7.609375-1.136719-11.246094l72.082031-57.664062c5 5.511718 10.695313 10.4375 17.054688 14.589844v14.320312h-16v16h16v24c0 4.425781 3.585938 8 8 8h8c0 17.648438 14.351562 32 32 32s32-14.351562 32-32h8c4.414062 0 8-3.574219 8-8v-24h16v-16h-16v-14.320312c6.351562-4.144532 12.054688-9.078126 17.054688-14.589844l72.082031 57.664062c-.746094 3.636719-1.136719 7.398438-1.136719 11.246094 0 30.871094 25.121094 56 56 56s56-25.128906 56-56-25.121094-56-56-56zm-384 96c-22.054688 0-40-17.945312-40-40s17.945312-40 40-40 40 17.945312 40 40-17.945312 40-40 40zm384-240c22.054688 0 40 17.945312 40 40s-17.945312 40-40 40-40-17.945312-40-40 17.945312-40 40-40zm-384 80c-22.054688 0-40-17.945312-40-40s17.945312-40 40-40 40 17.945312 40 40-17.945312 40-40 40zm192 144c-8.824219 0-16-7.175781-16-16h32c0 8.824219-7.175781 16-16 16zm32-32h-64v-16h64zm-40-32v-72h16v72zm43.992188-25.710938c-2.472657 1.429688-3.992188 4.070313-3.992188 6.917969v18.792969h-8v-72h16v-16h-16v-16h-16v16h-16v-16h-16v16h-16v16h16v72h-8v-18.792969c0-2.847656-1.519531-5.496093-3.992188-6.917969-22.207031-12.863281-36.007812-36.738281-36.007812-62.289062 0-39.703125 32.304688-72 72-72s72 32.296875 72 72c0 25.550781-13.800781 49.425781-36.007812 62.289062zm156.007812 105.710938c-22.054688 0-40-17.945312-40-40s17.945312-40 40-40 40 17.945312 40 40-17.945312 40-40 40zm0 0" data-original="#000000" class="active-path" fill="#FFFFFF"/></g> </svg>
