<svg id="Layer_1" data-name="Layer 1" xmlns="http://www.w3.org/2000/svg" viewBox="0 0 570 400"><defs><style>.cls-1,.cls-6{fill:#dbebfb;}.cls-18,.cls-2{fill:#edf6ff;}.cls-3{fill:#f6fbff;}.cls-4{fill:#fff;}.cls-5{fill:#c5edfa;}.cls-10,.cls-11,.cls-12,.cls-13,.cls-14,.cls-15,.cls-16,.cls-17,.cls-18,.cls-19,.cls-20,.cls-21,.cls-22,.cls-23,.cls-24,.cls-25,.cls-26,.cls-27,.cls-28,.cls-29,.cls-30,.cls-31,.cls-32,.cls-33,.cls-34,.cls-5,.cls-6,.cls-7,.cls-8,.cls-9{fill-rule:evenodd;}.cls-7{fill:#c9def2;}.cls-8{fill:#f57113;}.cls-9{fill:#fa9a2c;}.cls-10{fill:#fac545;}.cls-11{fill:#105b91;}.cls-12{fill:#0d4d7a;}.cls-13{fill:#0a3c5f;}.cls-14{fill:#c3d7ec;}.cls-15{fill:#31adcc;}.cls-16{fill:#198aa6;}.cls-17{fill:#b5cde6;}.cls-19,.cls-35{fill:#1466a1;}.cls-20{fill:#838489;}.cls-21{fill:#f1b287;}.cls-22{fill:#e8a476;}.cls-23{fill:#043150;}.cls-24{fill:#38251b;}.cls-25{fill:#642e40;}.cls-26{fill:#ab6f48;}.cls-27{fill:#eba06f;}.cls-28{fill:#239cb9;}.cls-29{fill:#f2930e;}.cls-30{fill:#ffd563;}.cls-31{fill:#ffc526;}.cls-32{fill:#783c18;}.cls-33{fill:#db9669;}.cls-34{fill:#422d22;}</style></defs><title>New banner edited version</title><path class="cls-1" d="M570,399.68V400H94.53a16.09,16.09,0,0,1-8.24-13.72c0-8.54,6.49-15.46,14.5-15.46.31,0,.62,0,.92,0,0-.55,0-1.1,0-1.66,0-14.73,11.21-26.67,25-26.67,12.55,0,22.95,9.85,24.75,22.7A21.81,21.81,0,0,1,166.66,359a21.45,21.45,0,0,1,8.93,2c1.88-16.29,14.9-28.91,30.7-28.91a29.37,29.37,0,0,1,16.42,5c1.12-22.43,18.53-40.24,39.84-40.24a38.56,38.56,0,0,1,27.77,12c2.9-15,15.36-26.27,30.28-26.27a29.54,29.54,0,0,1,18.5,6.55C343,271.17,358,257.83,376,257.83a35.8,35.8,0,0,1,15.49,3.52c1.84-14.59,13.57-25.84,27.77-25.84,12.42,0,23,8.62,26.63,20.56a29.47,29.47,0,0,1,18.29-6.38c16.17,0,29.44,13.23,30.81,30.09A37.57,37.57,0,0,1,509.18,277c22,0,39.89,19,39.89,42.52,0,1.09,0,2.19-.12,3.27.68-.05,1.35-.08,2-.08a29.66,29.66,0,0,1,19,7Z" transform="translate(0 0)"/><path class="cls-2" d="M570,282.4v47.29a29.66,29.66,0,0,0-19-7c-.68,0-1.35,0-2,.08.08-1.08.12-2.18.12-3.27,0-23.48-17.86-42.52-39.89-42.52A37.57,37.57,0,0,0,495,279.78c-1.37-16.86-14.64-30.09-30.81-30.09a29.47,29.47,0,0,0-18.29,6.38c-3.67-11.94-14.21-20.56-26.63-20.56-14.2,0-25.93,11.25-27.77,25.84A35.8,35.8,0,0,0,376,257.83c-18,0-33,13.34-36.9,31.24a29.54,29.54,0,0,0-18.5-6.55c-14.92,0-27.38,11.27-30.28,26.27a38.56,38.56,0,0,0-27.77-12c-21.31,0-38.72,17.81-39.84,40.24a29.37,29.37,0,0,0-16.42-5c-15.8,0-28.82,12.62-30.7,28.91a21.45,21.45,0,0,0-8.93-2,21.81,21.81,0,0,0-15.22,6.26c-1.8-12.85-12.2-22.7-24.75-22.7-13.82,0-25,11.94-25,26.67,0,.56,0,1.11,0,1.66-.3,0-.61,0-.92,0-8,0-14.5,6.92-14.5,15.46A16.09,16.09,0,0,0,94.53,400H0V285.46a36.86,36.86,0,0,1,17.25,7.21c8.75-11.56,22.14-18.94,37.16-18.94a45.73,45.73,0,0,1,29.88,11.2c.88-21.79,17.72-39.16,38.37-39.16,14.16,0,26.53,8.17,33.19,20.33a60.11,60.11,0,0,1,43.88-19.33,58.42,58.42,0,0,1,18.34,2.94c2.34-9.28,10.28-16.11,19.72-16.11A19.6,19.6,0,0,1,251.27,239c4.41-14.33,17-24.67,32-24.67a32.19,32.19,0,0,1,20.15,7.15c10.06-12.9,25.24-21.12,42.21-21.12a51.74,51.74,0,0,1,23.62,5.68C372.42,190,385.8,178,401.83,178s29.16,11.84,32.52,27.68a32.44,32.44,0,0,1,25.3-12.39c17.43,0,31.74,14.25,33.22,32.43A38,38,0,0,1,509.11,222c22.2,0,40.2,19.19,40.2,42.85a45,45,0,0,1-.77,8.36A37,37,0,0,1,570,282.4Z" transform="translate(0 0)"/><path class="cls-3" d="M570,172.61V282.4a37,37,0,0,0-21.46-9.17,45,45,0,0,0,.77-8.36c0-23.66-18-42.85-40.2-42.85a38,38,0,0,0-16.24,3.65c-1.48-18.18-15.79-32.43-33.22-32.43a32.44,32.44,0,0,0-25.3,12.39C431,189.79,417.71,178,401.83,178S372.42,190,369.21,206.06a51.74,51.74,0,0,0-23.62-5.68c-17,0-32.15,8.22-42.21,21.12a32.19,32.19,0,0,0-20.15-7.15c-14.91,0-27.55,10.34-32,24.67a19.6,19.6,0,0,0-13.48-5.42c-9.44,0-17.38,6.83-19.72,16.11a58.42,58.42,0,0,0-18.34-2.94,60.11,60.11,0,0,0-43.88,19.33c-6.66-12.16-19-20.33-33.19-20.33-20.65,0-37.49,17.37-38.37,39.16a45.73,45.73,0,0,0-29.88-11.2c-15,0-28.41,7.38-37.16,18.94A36.86,36.86,0,0,0,0,285.46V209.88a48.49,48.49,0,0,1,36.68-17.11c18.41,0,34.49,10.63,43.15,26.44,14.63-15.53,34.8-25.12,57.07-25.12a76.17,76.17,0,0,1,23.85,3.81c3-12.07,13.36-21,25.64-21A25.5,25.5,0,0,1,203.91,184c5.74-18.63,22.17-32.07,41.56-32.07a41.81,41.81,0,0,1,26.2,9.29c13.09-16.78,32.82-27.47,54.9-27.47a67.36,67.36,0,0,1,30.71,7.39c4.17-20.88,21.57-36.55,42.41-36.55,20.65,0,37.92,15.39,42.29,36a42.22,42.22,0,0,1,32.9-16.11c22.67,0,41.27,18.54,43.2,42.17a49.23,49.23,0,0,1,21.11-4.74A49.93,49.93,0,0,1,570,172.61Z" transform="translate(0 0)"/><path class="cls-4" d="M570,0V172.61a49.93,49.93,0,0,0-30.81-10.71,49.23,49.23,0,0,0-21.11,4.74c-1.93-23.63-20.53-42.17-43.2-42.17A42.22,42.22,0,0,0,442,140.58c-4.37-20.6-21.64-36-42.29-36-20.84,0-38.24,15.67-42.41,36.55a67.36,67.36,0,0,0-30.71-7.39c-22.08,0-41.81,10.69-54.9,27.47a41.81,41.81,0,0,0-26.2-9.29c-19.39,0-35.82,13.44-41.56,32.07A25.5,25.5,0,0,0,186.39,177c-12.28,0-22.61,8.88-25.64,21a76.17,76.17,0,0,0-23.85-3.81c-22.27,0-42.44,9.59-57.07,25.12-8.66-15.81-24.74-26.44-43.15-26.44A48.49,48.49,0,0,0,0,209.88V0Z" transform="translate(0 0)"/><polygon class="cls-5" points="334.32 71.87 345.69 60.65 368.99 81.33 358.38 78.41 351.39 72.1 371.39 124.74 344.24 70.15 340.88 73.66 334.32 71.87"/><polygon class="cls-5" points="489.75 205.42 497.35 199.28 510.3 213.28 504.01 210.85 500.13 206.59 519.7 288.06 495.89 204.97 493.63 206.91 489.75 205.42"/><polygon class="cls-5" points="301.96 99.15 309.55 91.67 325.1 105.47 318.02 103.51 313.35 99.31 348.29 193.29 308.58 98 306.34 100.35 301.96 99.15"/><polygon class="cls-5" points="427.82 94.48 435.95 87.91 449.8 102.88 443.07 100.29 438.92 95.73 481.99 244.6 434.39 94 431.98 96.07 427.82 94.48"/><polygon class="cls-5" points="477.34 131.45 489.75 121.42 510.87 144.26 500.62 140.31 494.28 133.36 509 187.64 487.36 130.71 483.68 133.87 477.34 131.45"/><polygon class="cls-5" points="306.02 181.98 316.62 171.53 338.32 190.8 328.44 188.07 321.92 182.2 340.56 231.23 315.26 180.38 312.13 183.65 306.02 181.98"/><path class="cls-6" d="M377.67,241.57c-4-6.87-17.3-4.13-18.42,1.26-12.06-.58-18.27,15.66-3.47,21.07-8,9,13.27,21.9,20.34,15.2,2.56,8.28,17.53,8.61,18.93.27,7.68,4.09,16.75-4.07,14.3-8,7.74,2,17.27-13.79.17-18.19-.79-6.54-8.69-11.59-16.67-5.73C391.2,242.86,381.13,237.88,377.67,241.57Z" transform="translate(0 0)"/><path class="cls-7" d="M349.6,247c-4.2,5-3.6,13.37,6.18,16.94-8,9,13.27,21.9,20.34,15.2,2.56,8.28,17.53,8.61,18.93.27,7.68,4.09,16.75-4.07,14.3-8,6.42,1.68,14.06-8.89,6.76-15.07,6.77,7.58-3.18,14.92-8.57,12.09,2.29,3.69-5.46,14.76-14.07,8.3-1.32,7.8-15.41,8.47-17.81-.9-6.6,6.25-24.67-5.52-17.22-13.95C346.76,258.49,347.7,251.85,349.6,247Z" transform="translate(0 0)"/><path class="cls-6" d="M380.13,237.24c-3.09-6.17-14.72-5.8-16-1.2-7.35-.59-12.71,7.54-.21,13-5,5,1.59,9.27,7.1,9.4.4,2.7,4.45,5.28,7.38,4.22,1.91,4.63,14.82,8.26,15.08,1,6.31,3.05,9.53-1.36,7.63-4.92,6.12,2.24,15.39-7,.82-13.33-.32-5.71-7.16-8.92-12.25-6.11C388.51,235.26,383.33,234.25,380.13,237.24Z" transform="translate(0 0)"/><path class="cls-7" d="M358.54,237.57c-3.83,2.7-3,8.37,5.38,11.51-5,5,1.59,9.27,7.1,9.4.4,2.7,4.45,5.28,7.38,4.22,1.91,4.63,14.82,8.26,15.08,1,6.31,3.05,9.53-1.36,7.63-4.92,5.32,1.95,13-4.78,5.37-10.73,5.38,5.16,1,9.69-7.08,9.38,2.1,4.67-5.91,6.46-7.23,2.84.12,7.47-11.21,4.29-11.9-.73-4.36,2-9.55-.44-8.06-4.22-7.08.21-9.69-3.62-6.32-7.56C359.7,245.31,354.9,242.57,358.54,237.57Z" transform="translate(0 0)"/><path class="cls-6" d="M378.29,208.86c-.21,7.41,3.23,25.84-4.58,27.84-4.19,1.07-5,5.36,3.45,9.09,1.44,3.22,11,9.41,12.8,2.6,7.79.79,5.58-4,2.24-7a15.2,15.2,0,0,1-3.1-3C384.47,231.28,381.37,217.88,378.29,208.86Z" transform="translate(0 0)"/><path class="cls-7" d="M378.29,208.86v0c1.46,6.39,5.82,20.65,10.11,29.7a9.83,9.83,0,0,0,2.51,3.49c4.55,3.88.45,5.75-2.63,3.86.16,4.51-8.47,3.7-11.39-1-6.22-.94-6.3-4.69-5.05-7.48-4.35,2.26-3.86,7.69,3.92,8.56,1.43,3.22,12.44,9.16,14.2,2.35,7.79.79,6.9-6.38,2.94-7.1-1.47-.27-3.09-2.09-4.08-3.71C384.39,230.31,381.28,217.62,378.29,208.86Z" transform="translate(0 0)"/><path class="cls-8" d="M381.05,223c.83-1.84,3.13-8.74,3.29-10.62l.85,2.09c2.07-7.58,1-10-2.53-16.24L371.17,200c-.74,7.25-1.16,9.88,3.53,16.43l.07-2.26A64.61,64.61,0,0,0,381.05,223Z" transform="translate(0 0)"/><path class="cls-9" d="M380,216.72a44.14,44.14,0,0,0,2.32-7.51l.61,1.48c1.45-5.35.71-7.09-1.79-11.47L373,200.43c-.53,5.11-.83,7,2.49,11.6l.05-1.6A46.09,46.09,0,0,0,380,216.72Z" transform="translate(0 0)"/><path class="cls-10" d="M379.22,212.15a32.42,32.42,0,0,0,1.7-5.49l.44,1.08c1.07-3.92.52-5.19-1.3-8.39l-5.94.88c-.39,3.74-.6,5.1,1.82,8.49l0-1.17A34.18,34.18,0,0,0,379.22,212.15Z" transform="translate(0 0)"/><path class="cls-11" d="M368.77,203.67c-1.33-2.68-2.39-5.11-3.71-7.76L384.31,193c.37-.63,1.55-.18,1.62-.8h0c-.24,2.89-.39,5.64-.79,8.57a4.55,4.55,0,0,1-1.79,3.13,11.25,11.25,0,0,1-5.8,2.44C374.49,206.74,370.49,206.74,368.77,203.67Z" transform="translate(0 0)"/><path class="cls-12" d="M380.07,193.62l4.24-.65c.37-.63,1.55-.18,1.62-.8h0c-.24,2.89-.39,5.64-.79,8.57a4.55,4.55,0,0,1-1.79,3.13,11.48,11.48,0,0,1-5.8,2.44c-3,.42-6.81.43-8.61-2.36,2.39,2.52,8.35,1.6,10.28.53C379.58,200.8,379.88,197.18,380.07,193.62Z" transform="translate(0 0)"/><path class="cls-13" d="M367,190.09c3.65-3.15,10.35-4.41,15-2.8s5.38,5.48,1.74,8.63-10.35,4.41-15,2.8S363.32,193.24,367,190.09Z" transform="translate(0 0)"/><path class="cls-6" d="M354.52,166.56a47.24,47.24,0,0,1,.69-11.77c.2-1.07.44-2.12.73-3.16,5.1-16.55,11.07-21.19,23.47-4.42.5.68,1,1.39,1.41,2.1a48.06,48.06,0,0,1,5,10.82c2.84,8.88,3.34,21.31.61,30.23a13,13,0,0,1-1,2.62,6.9,6.9,0,0,1-1.62,2,17,17,0,0,1-15.06,2.82,7,7,0,0,1-3.22-2.1,30,30,0,0,1-1.88-2.46C358.58,186.17,355.13,175.47,354.52,166.56Z" transform="translate(0 0)"/><path class="cls-14" d="M379.41,147.21a45.34,45.34,0,0,1,4.58,8.11,47.51,47.51,0,0,1,2.37,6.66c2.34,8.7,2.6,20.07.06,28.38a13,13,0,0,1-1,2.62c-1.85,3.35-6.71,5-10.29,5.4a15.05,15.05,0,0,1-6.39-.6,6.51,6.51,0,0,1-3.2-2.08c3.91,2.9,10.73,1.78,14.69-.43,2.28-13.81,2-27.25-3.55-38.25-1.27.61-12.12,4.11-17.4-.67l19.88-9c-.25-.38-.51-.75-.78-1.12a53,53,0,0,0-5.42-6.38A47.23,47.23,0,0,1,379.41,147.21Z" transform="translate(0 0)"/><path class="cls-15" d="M356.34,150.15c1.58-5.27,4.19-11.62,8-15.64a3.13,3.13,0,0,0,.25-.26A.92.92,0,0,1,365,134a.82.82,0,0,1,.5.14c5.24,2.54,10.31,7.84,13.56,12.48a5.18,5.18,0,0,1,.52.88,4.76,4.76,0,0,1-.77,4.84,11.44,11.44,0,0,1-3.94,3.24c-.2.12-.41.22-.62.33A19.61,19.61,0,0,1,361,157.15a8.66,8.66,0,0,1-3.75-2.16,4.64,4.64,0,0,1-1.06-1.78,4,4,0,0,1-.19-1.36A6.94,6.94,0,0,1,356.34,150.15Z" transform="translate(0 0)"/><path class="cls-16" d="M365,134H365a.82.82,0,0,1,.5.14c5.24,2.54,10.31,7.84,13.56,12.48a5.18,5.18,0,0,1,.52.88,4.76,4.76,0,0,1-.77,4.84l0,.06v0l0,.05h0l-.09.12h0l0,.05h0l0,.07h0l-.09.11v0l-.16.17h0s0,0,0,.05h0l-.17.18h0l-.17.17h0l-.12.12h0l-.06,0h0l-.36.32h0l0,0h0l-.12.09h0l0,0h0l-.12.1h0l0,0h0l0,0h0l-.05.05h0l0,0,0,0-.05,0h0l-.06,0h0l-.06,0h0l-.05,0h0l-.06,0,0,0,0,0,0,0,0,0h0l-.06,0h0l0,0,0,0,0,0,0,0,0,0h0l-.05,0h0c-.34.21-.68.41-1,.59s-.41.22-.62.33A19.61,19.61,0,0,1,361,157.15a8.48,8.48,0,0,1-3.88-2.3c1.76,1.27,8.94,5,18.26-1.61A75.3,75.3,0,0,0,365,134Z" transform="translate(0 0)"/><path class="cls-17" d="M370.08,162.47a8.39,8.39,0,1,0,9.92,6.77A8.48,8.48,0,0,0,370.08,162.47Z" transform="translate(0 0)"/><path class="cls-18" d="M372.5,176.2a5.55,5.55,0,1,0-6.44-4.5,5.54,5.54,0,0,0,6.44,4.5Zm-2.36-13.4a8.05,8.05,0,1,1-6.54,9.33A8.07,8.07,0,0,1,370.14,162.8Z" transform="translate(0 0)"/><path class="cls-19" d="M372.5,176.2a5.55,5.55,0,1,1,4.51-6.44A5.57,5.57,0,0,1,372.5,176.2Z" transform="translate(0 0)"/><path class="cls-13" d="M370.57,165.26a5.56,5.56,0,0,0-4.24,7.43,5.56,5.56,0,0,1,10.77-1.9,6.06,6.06,0,0,0-.09-1A5.55,5.55,0,0,0,370.57,165.26Z" transform="translate(0 0)"/><path class="cls-19" d="M370.5,164.88a.59.59,0,1,1,.48-.69A.6.6,0,0,1,370.5,164.88Z" transform="translate(0 0)"/><path class="cls-19" d="M372.77,177.75a.59.59,0,1,1,.48-.69A.6.6,0,0,1,372.77,177.75Z" transform="translate(0 0)"/><path class="cls-19" d="M364.51,172a.59.59,0,1,0,.48-.69A.59.59,0,0,0,364.51,172Z" transform="translate(0 0)"/><path class="cls-19" d="M377.4,169.7a.59.59,0,0,0,.68.48.6.6,0,0,0,.48-.69.58.58,0,0,0-.68-.48A.6.6,0,0,0,377.4,169.7Z" transform="translate(0 0)"/><path class="cls-19" d="M365.7,166.64a.59.59,0,1,0,.82-.14A.59.59,0,0,0,365.7,166.64Z" transform="translate(0 0)"/><path class="cls-19" d="M376.41,174.14a.59.59,0,0,0,.14.82.6.6,0,0,0,.83-.14.6.6,0,0,0-.15-.83A.59.59,0,0,0,376.41,174.14Z" transform="translate(0 0)"/><path class="cls-19" d="M367.44,176.57a.59.59,0,1,0,.68-1,.58.58,0,0,0-.82.15A.59.59,0,0,0,367.44,176.57Z" transform="translate(0 0)"/><path class="cls-19" d="M375,165.86a.59.59,0,0,0,.68-1,.6.6,0,0,0-.83.15A.59.59,0,0,0,375,165.86Z" transform="translate(0 0)"/><polygon class="cls-20" points="365.1 194.5 364.89 194.23 365.12 194.52 365.1 194.5 365.1 194.5"/><path class="cls-15" d="M360.23,184.84l3.06,1.12c-2.35,13.68-.53,21.13,1.26,32.5l-3.06-1.12h0c-1.44-5.27-3.64-10.8-4.31-16.15a25.78,25.78,0,0,1,.06-7.23A31.16,31.16,0,0,1,360.23,184.84Z" transform="translate(0 0)"/><path class="cls-16" d="M363.29,186l5.1,12.4a83.48,83.48,0,0,0-3.84,20.1C361.46,207.16,356.79,199.16,363.29,186Z" transform="translate(0 0)"/><path class="cls-15" d="M387,180.13l-2.49,2.09c6.88,12.05,7.72,19.68,9.93,31l2.49-2.1h0c-.45-5.44-.28-11.39-1.47-16.64a25.73,25.73,0,0,0-2.54-6.78A30.85,30.85,0,0,0,387,180.13Z" transform="translate(0 0)"/><path class="cls-16" d="M384.5,182.22l-.56,13.39a83.53,83.53,0,0,1,10.49,17.58C393.47,201.51,395.11,192.4,384.5,182.22Z" transform="translate(0 0)"/><path class="cls-13" d="M341,145.23c1,1.28,6.16,4.91,10.73,6.64,1.32.49,2.6-1.39,2.93-2.55a2.8,2.8,0,0,0-.62-2.59,9.32,9.32,0,0,0-4.16-2c-1.29-.33-2.95-1.68-4.23-2.18a6.57,6.57,0,0,0-2.58-1C340.7,141.34,339.39,143.49,341,145.23Z" transform="translate(0 0)"/><path class="cls-21" d="M339.14,131.36a4.21,4.21,0,0,1-.29-1c0-.34.2-.37.35-.87s.17-1.07.25-1.47a4.54,4.54,0,0,0-.08-1.39.65.65,0,0,0-.69-.65c-.15,0-.33.06-.67.14a3,3,0,0,0-.9-.56.73.73,0,0,0-.88.1,4.53,4.53,0,0,0-1.06,1,7.28,7.28,0,0,0-.55,1.67c-.15.6-.18.84,0,1.19a10.51,10.51,0,0,0,1.19,1.44,7.18,7.18,0,0,1,.92,1.59c1.42,4.09,1.54,8,3.66,11.63a1.4,1.4,0,0,0,.83.68c.57.19,1.56-.55,2.24-.8l-.14-3.8C343,138.3,340.82,134.37,339.14,131.36Z" transform="translate(0 0)"/><path class="cls-22" d="M336.93,132.91a4,4,0,0,0,1.08-.18c-.16-.29-.22-.53-.71-1.58a2.62,2.62,0,0,0-1.46-1.6c.31-.13.25,0,.47-.28.14.26.46.44.56.35a.56.56,0,0,0,.13-.5,1,1,0,0,0-.79-.67,8.06,8.06,0,0,0-1.7.7,1.12,1.12,0,0,0,.15.39,10.51,10.51,0,0,0,1.19,1.44A8.5,8.5,0,0,1,336.93,132.91Z" transform="translate(0 0)"/><path class="cls-21" d="M338.54,126.05l-.53.12a3,3,0,0,0-.9-.56.73.73,0,0,0-.88.1,4.53,4.53,0,0,0-1.06,1,7.28,7.28,0,0,0-.55,1.67,1.88,1.88,0,0,0-.1.88c.57-.22,1.21-.52,1.76-.78.22.11,1,.7.56,1.19a5.53,5.53,0,0,0,.91-1.77,13.29,13.29,0,0,0,.62-1.73Z" transform="translate(0 0)"/><path class="cls-22" d="M338.54,126.05l-.53.12a3,3,0,0,0-.9-.56,1,1,0,0,0-.33-.1l-.5,2.94c.22.11,1,.7.56,1.19a5.53,5.53,0,0,0,.91-1.77,13.29,13.29,0,0,0,.62-1.73Z" transform="translate(0 0)"/><path class="cls-21" d="M339.45,128.07a4.54,4.54,0,0,0-.08-1.39.65.65,0,0,0-.69-.65c-.15,0-.33.06-.67.14s-.29,0-.41.19a.6.6,0,0,0,.13.58A11,11,0,0,0,339.45,128.07Z" transform="translate(0 0)"/><path class="cls-22" d="M337.6,126.37a1.11,1.11,0,0,0,1.51.55,1,1,0,0,1-.93.44A.68.68,0,0,1,337.6,126.37Z" transform="translate(0 0)"/><path class="cls-13" d="M339.41,131.73c-.05-.12-.3-.63-.33-.72a3.86,3.86,0,0,1-2.51,1.22c.06.11.28.71.33.82a2.18,2.18,0,0,1,0,.72c0,2.13,1.47,7.09,3.5,10.51.78,1.33,4.27.77,4.07-1.6-.13-1.47-2.15-5.56-2.65-6.65s-1.22-2.52-2-3.86C339.76,132,339.51,131.93,339.41,131.73Z" transform="translate(0 0)"/><path class="cls-23" d="M370.63,209.77a7.45,7.45,0,0,0,.31,1.08,11.93,11.93,0,0,1,.73,1.72c.4,1.21.16,2.86.71,4.57a1.85,1.85,0,0,1-.1,1.86,3.08,3.08,0,0,1-2.28,1.64,1.74,1.74,0,0,1-1.23-.5,2.93,2.93,0,0,1-.89-2,16.47,16.47,0,0,0,0-2.37c-.11-.84-.31-1.3-.37-2.23s-.12-2.33-.17-3Z" transform="translate(0 0)"/><path class="cls-23" d="M361.45,205.18a5.9,5.9,0,0,1,.78,2.42c-.14.65-.57.94-1,1.4l-.35.1c-.84.52-1,2.2-1.76,3a6.25,6.25,0,0,1-2.78,1.19c-1.2.29-2.4,0-2.17-1,.57-2.41,3.74-5.25,3.58-7.91Z" transform="translate(0 0)"/><path class="cls-13" d="M354.73,188.54c.52,4.54,2.53,12.73,2.8,17.21,1.47.88,3.33.57,4-.66.09-4.14.13-9.7,0-12a17.61,17.61,0,0,0-1.11-5.27c.22-5,2.49-11.92,1.36-16.56-.5-2-2.06-4.18-2.61-5.86-1.39,2-5.55,2.54-7.71,2.1.12,1.22-.2.94,0,2.21.81,5.3,2,11,2.81,16.5A7.62,7.62,0,0,0,354.73,188.54Z" transform="translate(0 0)"/><path class="cls-12" d="M361.52,191.52c1.25,4.5,4.55,14.77,5.54,19.22,1.56.74,3.41.22,3.82-1-.37-4.11-.95-10.89-1.47-13.13a28.91,28.91,0,0,0-2.5-6.31c-.59-5,.36-12-1.53-16.56-.83-2-2.75-4.14-3.58-5.8-.78,1.44-1.84,2.08-4.89,2-.3,0-3-1.68-3.85-1.84,1.65,6.26,5.46,14.35,7.59,21.16A8.31,8.31,0,0,0,361.52,191.52Z" transform="translate(0 0)"/><path class="cls-6" d="M361.59,148.74c-1.69-.65-7.59-3.32-9.15-2.87a5.12,5.12,0,0,0-3.62,3,14.74,14.74,0,0,0-.18,7.83c.27,1.27.74,2.48,1.13,3.86.51,1.79,1.08,8.11,1.75,9.82,2,2.66,9.21,1.74,12.21-1-.54-.94-.61-8.73-.39-9.52.81-2.89,1.72-6,1.41-8.09C364.5,150.1,362.93,149.25,361.59,148.74Z" transform="translate(0 0)"/><path class="cls-12" d="M352.72,145.73a21.7,21.7,0,0,1,5.77,1.16c3.51,1.24,7,2.76,7.23,4.91.36,3.61-2.11,6.81-2,10.91.08,3.47,4.45,8.77,8.65,10.21-.36,1.71-2.51,3.83-4.21,3.57-4.92-1.73-14.55-13.23-10.39-27.76.3-1.07-1.45-1.3-3.33-1.61S352,145.76,352.72,145.73Z" transform="translate(0 0)"/><path class="cls-12" d="M351.32,169.72a78,78,0,0,1-1.69-7.84,57.44,57.44,0,0,1-1.5-8.11c-.16-3.09.2-6,2.14-7.47,1-.75,1.89-.67,4.86-.27l0,1.09c-5,2.29-5.65,7.54-5.22,12.95C350.15,163.5,350.93,166.88,351.32,169.72Z" transform="translate(0 0)"/><path class="cls-15" d="M352.64,151c-1.31,3.4-.36,4.73.94,7,1.42,2.45.94,5.47.72,8.68a10.13,10.13,0,0,1-2.81,2.72,15.14,15.14,0,0,0-1.13-3.9,8.65,8.65,0,0,0,.77-5.08c-.59-2.83-2.18-5.23.75-9.68-.24-1.18-.08-1.43.17-1.58s0-.22.89,0c.56.13,1.14.26,1,.86S353.55,150.6,352.64,151Z" transform="translate(0 0)"/><path class="cls-22" d="M357.82,146.78c.2,1.44-4,3.86-4.63,2.29-.36-1-.27-4-.7-5.37l3.67-2,1.34-.61C357.15,143.31,356.89,144.94,357.82,146.78Z" transform="translate(0 0)"/><path class="cls-18" d="M353.18,149c-.2-.42-.19-1.59-.35-2.2-.51.09-1.13,1.88-1.52,2.82A2.78,2.78,0,0,1,353.18,149Z" transform="translate(0 0)"/><path class="cls-18" d="M357.46,145.82c.12,1.21-2.72,2.7-4.47,3.21.47.51,1.08,1.14,1.09,1.67,1.25-.41,3.55-1.29,4.35-2.95C359,146.61,358.06,146.23,357.46,145.82Z" transform="translate(0 0)"/><path class="cls-24" d="M352.83,136.82c-.81.33-1,1.05-1.11,2.22a7.2,7.2,0,0,1,1-1.34Z" transform="translate(0 0)"/><path class="cls-21" d="M353.2,145.86c.56-.15,1.9-.4,2.42-.56,1.13-.37,1.3-1.25,2-2.49a2.5,2.5,0,0,0,1.75-1.22,4.1,4.1,0,0,0-.4-3.94,3.63,3.63,0,0,0-2.77-1.58c-2.33-.24-3.65.6-4.38,2.43a4.5,4.5,0,0,0-.22,1c0,.41.07.51,0,.79a1.34,1.34,0,0,1-.27.62,8,8,0,0,0-.25,4.18A2.19,2.19,0,0,0,353.2,145.86Z" transform="translate(0 0)"/><path class="cls-25" d="M353.77,138.8c.61-.14,2.86-.69,3.85-1s2.11-.6,2.72.14a4.62,4.62,0,0,1,0,3.2,6.59,6.59,0,0,1-2.74,2.73c-.48.3,0-1.31-.08-1.68-.35.53-.61.73-.81.73s-.31,0-.13-.7c.26-1.13-.24-1.43.2-2.11s-.07-.57-.14-.83A7.33,7.33,0,0,1,353.77,138.8Z" transform="translate(0 0)"/><path class="cls-21" d="M358.06,141.66c.94-.1.72.9.45,1.48-.19.4-.53.29-.73.59a.83.83,0,0,1-.85.41c-.53-.14,0-.85.11-1.15C357.09,142.47,357.46,141.72,358.06,141.66Z" transform="translate(0 0)"/><path class="cls-26" d="M354.86,142a1.65,1.65,0,0,0-1.27-.62A1.15,1.15,0,0,1,354.86,142Z" transform="translate(0 0)"/><path class="cls-26" d="M352.34,140.74a.65.65,0,0,0-.67-.49,1,1,0,0,1,.65.56Z" transform="translate(0 0)"/><path class="cls-26" d="M352.32,141.2a2.29,2.29,0,0,1-.66.86c-.55.39-.45.67.08,1-.52-.4-.39-.54,0-.92A2.45,2.45,0,0,0,352.32,141.2Z" transform="translate(0 0)"/><path class="cls-26" d="M354.14,142c-.18,0-.18-.28-.09-.41s.09-.08.2-.07a.24.24,0,0,1,.19.22A.26.26,0,0,1,354.14,142Z" transform="translate(0 0)"/><path class="cls-25" d="M352.66,134.88c.44.35,1,0,3-.18s4.72.8,4.74,3.14a1.49,1.49,0,0,1,0,.21,18.14,18.14,0,0,0-2.76.82,6.24,6.24,0,0,1-4.19,0C352.06,138.14,351.2,136.08,352.66,134.88Z" transform="translate(0 0)"/><path class="cls-26" d="M351.87,140.83c-.18,0-.18-.28-.09-.4s.1-.08.2-.07a.24.24,0,0,1,.2.22A.26.26,0,0,1,351.87,140.83Z" transform="translate(0 0)"/><path class="cls-27" d="M351.38,143.63c.09,0,.11.08.2.14a.75.75,0,0,1,.31.16,1.67,1.67,0,0,0,1.14.42c-.53.08-1.3.34-1.68-.12-.11-.14,0-.32-.08-.42S351.2,143.59,351.38,143.63Z" transform="translate(0 0)"/><path class="cls-26" d="M351.36,143.82a2,2,0,0,0,1.23.55,2,2,0,0,1-1.24-.35v-.2Z" transform="translate(0 0)"/><path class="cls-16" d="M364.7,183.65c-.12-.37,0-.32.17-.54l.07-.09,2.36-2.46c1.55-1.39,3.37,1.84,4.45,4.37l-2,2.15-4-.78Z" transform="translate(0 0)"/><path class="cls-16" d="M370.9,193.17l-1.91-6-.55-1.94,9.68-10.68,2.54,7.9a2,2,0,0,1,.09.56,1,1,0,0,1,0,.32.58.58,0,0,1,0,.14.75.75,0,0,1-.15.24l-9.68,10.68C371.08,194.12,371.07,193.71,370.9,193.17Z" transform="translate(0 0)"/><path class="cls-28" d="M364.31,184.36l4.13.88,2.54,7.9c.35,1.09-.29,1.78-1.42,1.53h0a4,4,0,0,1-2.67-2.41Z" transform="translate(0 0)"/><polygon class="cls-29" points="375.17 185.55 374.52 185.41 375.17 187.4 375.82 187.54 375.48 186.39 375.17 185.55"/><path class="cls-15" d="M374.18,172.22a1.33,1.33,0,0,1,.48-.33,2.6,2.6,0,0,1,1.78.18,4.76,4.76,0,0,1,1.23.76,4.69,4.69,0,0,1,1.34,1.75,2,2,0,0,1,.08.22l.76,2.36-3.5,7.61-.86.95-5.32,2.11-.08,0-.38-1.08a11.16,11.16,0,0,0-1.62-3c-.72-.69-2.77-1.71-3.59-.85Z" transform="translate(0 0)"/><path class="cls-28" d="M365.2,182.53c-.82.15-1.21.88-.88,1.9l.92,2.88.89.19-.92-2.88a1,1,0,0,1,.11-1c.63-.68,2,.12,2.47.56a2.62,2.62,0,0,1,.73,1.11l.76,2.34.89.19-.76-2.35a4.91,4.91,0,0,0-1.69-2.35A3.47,3.47,0,0,0,365.2,182.53Z" transform="translate(0 0)"/><polygon class="cls-29" points="375.17 185.55 374.93 185.5 375.58 187.49 375.82 187.54 375.48 186.39 375.17 185.55"/><polygon class="cls-30" points="376.4 184.17 375.69 185.06 375.17 185.55 374.93 185.5 376.16 184.12 376.4 184.17"/><polygon class="cls-31" points="376.4 184.17 375.17 185.55 375.82 187.54 377.05 186.17 376.4 184.17"/><path class="cls-32" d="M371.84,175.24l0-.08h0l-.05-.06h0l-.05-.06h0l-.06-.05-.08-.06h0l-.09,0,1,.21.09,0h0l.08.06h0l.05,0h0l0,0v0h0a.05.05,0,0,1,0,0h0v0l0,0v0h0l0,0v0h0l.14.43-1-.21-.14-.43,0-.09Z" transform="translate(0 0)"/><path class="cls-15" d="M370.72,174.56l0-.05,0,0h0l0,0,0,0h0l0,0,.05,0,0,0h0l.05,0h.06l.06,0h.38l1,.21a1.42,1.42,0,0,0-.9.49h0l-1.32,1.44h0a2.93,2.93,0,0,0-.61,2.38l-.08,0h.08l.14.43-1-.21-.14-.43h0v0h0v-.05h0a.13.13,0,0,1,0-.06h0a.83.83,0,0,1,0-.22v-.07a2.9,2.9,0,0,1,0-.51,3,3,0,0,1,.16-.72l0-.1a.26.26,0,0,0,0-.08,3.08,3.08,0,0,1,.44-.73h0l1.38-1.53Z" transform="translate(0 0)"/><path class="cls-16" d="M370.26,176.33l1.39-1.53a.85.85,0,0,1,1.57.33l.14.43L373,176l-.14-.43c-.17-.54-.63-.64-1-.21l-1.39,1.52a2,2,0,0,0-.37,1.74l.14.43-.38.42-.14-.43A3,3,0,0,1,370.26,176.33Z" transform="translate(0 0)"/><path class="cls-22" d="M372.29,172.32c.12,2.13.76,3.11.68,3.58a12.59,12.59,0,0,1-2.18,2.85c-.18.14-.65,0-.71-.09-.35-.4-.06-1.06-.31-1.94-.14-.51-.54-.37-.72-.23s-.32.75-.41,1.06c-.08-1.23-.6-2.16.06-3.16a3.34,3.34,0,0,0,.76-1.64Z" transform="translate(0 0)"/><path class="cls-12" d="M363.76,149.66a5.87,5.87,0,0,1,3.26,2c1.73,2.39,3,7.25,4.23,10.36.56,3.71,1.13,6.72,1.42,10.46-.49.87-3,2.33-3.7,1-.59-3.17-1.62-6.85-1.54-10.12a28.25,28.25,0,0,1-3.19-4.81C363.26,156.76,360.42,150.38,363.76,149.66Z" transform="translate(0 0)"/><path class="cls-6" d="M426.45,269.67C422.2,262.4,408.16,265.3,407,271c-12.75-.62-19.31,16.56-3.67,22.28-8.44,9.54,14,23.16,21.52,16.08,2.7,8.75,18.53,9.1,20,.28,8.12,4.33,17.71-4.31,15.11-8.48,8.2,2.14,18.27-14.58.19-19.23-.84-6.92-9.2-12.26-17.63-6.07C440.77,271,430.11,265.77,426.45,269.67Z" transform="translate(0 0)"/><path class="cls-7" d="M396.76,275.37c-4.44,5.34-3.8,14.13,6.54,17.91-8.44,9.54,14,23.16,21.52,16.08,2.7,8.75,18.53,9.1,20,.28,8.12,4.33,17.71-4.31,15.11-8.48,6.79,1.77,14.87-9.4,7.16-15.93,7.15,8-3.36,15.77-9.06,12.78,2.42,3.9-5.78,15.61-14.89,8.78-1.39,8.24-16.3,9-18.83-1-7,6.62-26.09-5.83-18.21-14.74C393.77,287.56,394.76,280.53,396.76,275.37Z" transform="translate(0 0)"/><path class="cls-6" d="M428.83,266.89c-3.51-7-16.72-6.58-18.16-1.35-8.35-.68-14.43,8.55-.24,14.8-5.71,5.67,1.8,10.52,8.06,10.67.45,3.06,5.05,6,8.38,4.79,2.16,5.25,16.82,9.38,17.11,1.11,7.17,3.45,10.83-1.56,8.67-5.6,7,2.55,17.47-7.95.93-15.13-.36-6.48-8.13-10.13-13.91-6.94C438.34,264.64,432.47,263.49,428.83,266.89Z" transform="translate(0 0)"/><path class="cls-7" d="M404.31,267.27c-4.34,3.07-3.37,9.5,6.12,13.07-5.71,5.67,1.8,10.52,8.06,10.67.45,3.06,5.05,6,8.38,4.79,2.16,5.25,16.82,9.38,17.11,1.11,7.17,3.45,10.83-1.56,8.67-5.6,6,2.22,14.78-5.43,6.09-12.18,6.11,5.86,1.1,11-8,10.66,2.39,5.3-6.71,7.33-8.21,3.22.14,8.48-12.73,4.87-13.51-.83-4.95,2.26-10.84-.5-9.16-4.8-8,.25-11-4.1-7.17-8.57C405.64,276.06,400.18,272.94,404.31,267.27Z" transform="translate(0 0)"/><path class="cls-6" d="M428.79,255.55c-3-6-14.21-5.59-15.44-1.15-7.1-.57-12.27,7.27-.2,12.59-4.86,4.82,1.53,8.94,6.85,9.07.39,2.6,4.3,5.09,7.12,4.07,1.85,4.47,14.31,8,14.56.94,6.09,2.94,9.2-1.32,7.37-4.75,5.91,2.16,14.85-6.77.79-12.87-.31-5.52-6.92-8.61-11.83-5.9C436.88,253.64,431.89,252.66,428.79,255.55Z" transform="translate(0 0)"/><path class="cls-7" d="M408,255.87c-3.7,2.61-2.87,8.08,5.2,11.12-4.86,4.82,1.53,8.94,6.85,9.07.39,2.6,4.3,5.09,7.12,4.07,1.85,4.47,14.31,8,14.56.94,6.09,2.94,9.2-1.32,7.37-4.75,5.14,1.88,12.56-4.62,5.18-10.36,5.19,5,.94,9.36-6.83,9.06,2,4.5-5.71,6.23-7,2.74.11,7.2-10.83,4.14-11.49-.71-4.21,1.93-9.22-.43-7.78-4.08-6.84.21-9.36-3.49-6.1-7.29C409.08,263.35,404.44,260.7,408,255.87Z" transform="translate(0 0)"/><path class="cls-6" d="M416.85,178.06c-.27,9.19,10.51,65.46.82,67.93-5.19,1.33-6.15,6.65,4.28,11.28,1.78,4,13.69,11.67,15.87,3.22,9.66,1,6.92-4.91,2.78-8.64a18.45,18.45,0,0,1-3.84-3.7C431,239.28,420.66,189.24,416.85,178.06Z" transform="translate(0 0)"/><path class="cls-7" d="M416.85,178.06v.06c1.81,7.92,13.72,59,19,70.25A12.18,12.18,0,0,0,439,252.7c5.64,4.8.56,7.12-3.26,4.78.19,5.59-10.5,4.58-14.13-1.24-7.7-1.16-7.8-5.81-6.25-9.28-5.4,2.8-4.79,9.54,4.85,10.62,1.78,4,15.43,11.36,17.61,2.91,9.66,1,8.56-7.9,3.65-8.8-1.82-.33-3.83-2.59-5.06-4.6C430.91,238.07,420.55,188.92,416.85,178.06Z" transform="translate(0 0)"/><path class="cls-8" d="M417.91,183.45c.83-1.84,3.12-8.74,3.28-10.62l.85,2.09c2.07-7.58,1-10-2.52-16.24l-11.5,1.7c-.74,7.25-1.16,9.88,3.54,16.43l.06-2.26A65.59,65.59,0,0,0,417.91,183.45Z" transform="translate(0 0)"/><path class="cls-9" d="M416.85,177.14a46,46,0,0,0,2.32-7.51l.6,1.48c1.46-5.35.71-7.09-1.78-11.47l-8.12,1.21c-.52,5.11-.82,7,2.5,11.6l0-1.6A47.11,47.11,0,0,0,416.85,177.14Z" transform="translate(0 0)"/><path class="cls-10" d="M416.08,172.57a33.35,33.35,0,0,0,1.7-5.49l.44,1.08c1.06-3.92.52-5.19-1.31-8.39l-5.94.88c-.38,3.74-.6,5.1,1.83,8.49l0-1.17A32.82,32.82,0,0,0,416.08,172.57Z" transform="translate(0 0)"/><path class="cls-11" d="M405.62,164.09c-1.33-2.68-2.38-5.11-3.71-7.76l19.25-2.94c.38-.63,1.56-.18,1.62-.8h0c-.23,2.89-.39,5.64-.79,8.57a4.51,4.51,0,0,1-1.79,3.13,11.25,11.25,0,0,1-5.8,2.44C411.35,167.16,407.34,167.16,405.62,164.09Z" transform="translate(0 0)"/><path class="cls-12" d="M416.93,154l4.23-.65c.38-.63,1.56-.18,1.62-.8h0c-.23,2.89-.39,5.64-.79,8.57a4.51,4.51,0,0,1-1.79,3.13,11.44,11.44,0,0,1-5.8,2.44c-3,.42-6.81.43-8.61-2.36,2.39,2.52,8.35,1.61,10.28.53Q416.63,159.38,416.93,154Z" transform="translate(0 0)"/><path class="cls-13" d="M403.82,150.51c3.65-3.15,10.34-4.41,14.95-2.8s5.39,5.48,1.74,8.63-10.34,4.41-14.95,2.8S400.17,153.66,403.82,150.51Z" transform="translate(0 0)"/><path class="cls-6" d="M391.38,127a47.24,47.24,0,0,1,.68-11.77c.2-1.07.44-2.12.73-3.16,5.1-16.55,11.07-21.19,23.47-4.42.5.68,1,1.39,1.41,2.1a47.65,47.65,0,0,1,5,10.82c2.83,8.88,3.33,21.31.6,30.23a13,13,0,0,1-1,2.62,6.73,6.73,0,0,1-1.62,2,17,17,0,0,1-15.06,2.82,7.13,7.13,0,0,1-3.22-2.1c-.66-.75-1.39-1.77-1.88-2.46C395.43,146.59,392,135.89,391.38,127Z" transform="translate(0 0)"/><path class="cls-14" d="M416.26,107.63a44.79,44.79,0,0,1,4.59,8.11,47.46,47.46,0,0,1,2.36,6.66c2.35,8.71,2.6,20.07.06,28.38a13,13,0,0,1-1,2.62c-1.85,3.35-6.71,5-10.29,5.4a15.05,15.05,0,0,1-6.39-.6,6.6,6.6,0,0,1-3.2-2.08c3.91,2.9,10.73,1.78,14.69-.43,2.28-13.81,2-27.25-3.54-38.25-1.28.61-12.13,4.11-17.41-.67l19.88-9c-.25-.38-.51-.75-.78-1.12a53.8,53.8,0,0,0-5.41-6.38A47.24,47.24,0,0,1,416.26,107.63Z" transform="translate(0 0)"/><path class="cls-15" d="M393.19,110.57c1.59-5.27,4.2-11.62,8-15.64l.25-.26a.84.84,0,0,1,.44-.29.86.86,0,0,1,.51.14c5.24,2.54,10.3,7.84,13.56,12.48a5.93,5.93,0,0,1,.52.88,4.76,4.76,0,0,1-.78,4.84,11.44,11.44,0,0,1-3.94,3.24c-.2.12-.4.22-.61.33a19.64,19.64,0,0,1-13.3,1.28,8.47,8.47,0,0,1-3.74-2.16,4.54,4.54,0,0,1-1.07-1.78,4,4,0,0,1-.19-1.36A7.44,7.44,0,0,1,393.19,110.57Z" transform="translate(0 0)"/><path class="cls-16" d="M401.81,94.39h.07a.86.86,0,0,1,.51.14c5.24,2.54,10.3,7.84,13.56,12.48a5.93,5.93,0,0,1,.52.88,4.76,4.76,0,0,1-.78,4.84l0,.06v0l0,0h0l-.09.12h0l0,.05h0l-.05.07h0l-.1.11v0l-.15.17h0l-.05,0h0l-.17.18h0l-.17.17h0l-.12.12h0l-.05,0h0l-.36.32h0l-.05.05h0l-.12.09v0l0,0h0l-.12.1h0l-.05,0h0l-.05,0h0l-.05,0h0l0,0,0,0-.05,0h0l-.06,0h0l-.05,0h0l-.05,0h0l-.05,0,0,0,0,0,0,0,0,0h0l0,0h0l0,0,0,0,0,0,0,0,0,0h0l-.06,0h0c-.34.22-.68.41-1,.59s-.4.22-.61.33a19.64,19.64,0,0,1-13.3,1.28,8.44,8.44,0,0,1-3.87-2.3c1.75,1.27,8.93,5,18.25-1.61A75,75,0,0,0,401.81,94.39Z" transform="translate(0 0)"/><path class="cls-17" d="M406.93,122.89a8.39,8.39,0,1,0,9.92,6.77A8.49,8.49,0,0,0,406.93,122.89Z" transform="translate(0 0)"/><path class="cls-18" d="M409.35,136.62a5.55,5.55,0,1,0-6.44-4.5,5.55,5.55,0,0,0,6.44,4.5ZM407,123.22a8.05,8.05,0,1,1-6.54,9.33A8.06,8.06,0,0,1,407,123.22Z" transform="translate(0 0)"/><path class="cls-19" d="M409.35,136.62a5.55,5.55,0,1,1,4.52-6.43A5.57,5.57,0,0,1,409.35,136.62Z" transform="translate(0 0)"/><path class="cls-13" d="M407.42,125.68a5.56,5.56,0,0,0-4.24,7.43,5.56,5.56,0,0,1,10.77-1.9,5,5,0,0,0-.08-1A5.56,5.56,0,0,0,407.42,125.68Z" transform="translate(0 0)"/><path class="cls-19" d="M407.36,125.3a.59.59,0,1,1,.48-.69A.61.61,0,0,1,407.36,125.3Z" transform="translate(0 0)"/><path class="cls-19" d="M409.63,138.17a.59.59,0,1,1,.48-.69A.61.61,0,0,1,409.63,138.17Z" transform="translate(0 0)"/><path class="cls-19" d="M401.36,132.39a.59.59,0,1,0,1.17-.21.58.58,0,0,0-.68-.48A.6.6,0,0,0,401.36,132.39Z" transform="translate(0 0)"/><path class="cls-19" d="M414.25,130.12a.59.59,0,1,0,.48-.69A.6.6,0,0,0,414.25,130.12Z" transform="translate(0 0)"/><path class="cls-19" d="M402.55,127.06a.59.59,0,1,0,.82-.14A.59.59,0,0,0,402.55,127.06Z" transform="translate(0 0)"/><path class="cls-19" d="M413.26,134.56a.59.59,0,1,0,.83-.15A.6.6,0,0,0,413.26,134.56Z" transform="translate(0 0)"/><path class="cls-19" d="M404.3,137a.59.59,0,0,0,.68-1,.59.59,0,1,0-.68,1Z" transform="translate(0 0)"/><path class="cls-19" d="M411.8,126.28a.6.6,0,0,0,.83-.15.59.59,0,0,0-.15-.82.59.59,0,0,0-.68,1Z" transform="translate(0 0)"/><polygon class="cls-20" points="401.96 154.92 401.75 154.65 401.98 154.94 401.96 154.92 401.96 154.92"/><path class="cls-15" d="M397.09,145.26l3.05,1.12c-2.35,13.68-.53,21.13,1.26,32.5l-3-1.12h0c-1.44-5.27-3.63-10.8-4.31-16.15a25.79,25.79,0,0,1,.07-7.23A30.58,30.58,0,0,1,397.09,145.26Z" transform="translate(0 0)"/><path class="cls-16" d="M400.14,146.38l5.11,12.4a83,83,0,0,0-3.85,20.1C398.31,167.58,393.65,159.58,400.14,146.38Z" transform="translate(0 0)"/><path class="cls-15" d="M423.84,140.55l-2.49,2.09c6.89,12.05,7.73,19.68,9.93,31l2.49-2.1h0c-.45-5.44-.29-11.39-1.48-16.64a25.7,25.7,0,0,0-2.53-6.78A30.89,30.89,0,0,0,423.84,140.55Z" transform="translate(0 0)"/><path class="cls-16" d="M421.35,142.64,420.79,156a83.11,83.11,0,0,1,10.49,17.58C430.32,161.93,432,152.82,421.35,142.64Z" transform="translate(0 0)"/><path class="cls-23" d="M407.48,165.73a3.8,3.8,0,0,1,1.84,1.51,13.3,13.3,0,0,1-.11,2.15l-.26.29c-.38.77.1,2,.16,3.06a2.2,2.2,0,0,1-.61,1.71,4.68,4.68,0,0,1-2.61,1.5c-1.43.4-2.8.33-2.35-.64a6.73,6.73,0,0,0,1.09-2.09,12.45,12.45,0,0,0-.44-4.85C403.45,166.4,405.88,166.28,407.48,165.73Z" transform="translate(0 0)"/><path class="cls-23" d="M404.83,159.08a6.15,6.15,0,0,1,1.15,1.79,14.84,14.84,0,0,1,.26,4.78c0,1,.3,1.45,1.19,1.1.7-.27,1.4-1.72,1.81-2.64.77-1.73.33-3,.49-3.67l.37-.31a5.1,5.1,0,0,0,.54-2.39,10.44,10.44,0,0,0-1-1.05c-1.21-1-1.23-.7-2.45-1.1C406.41,156.78,405.65,157.92,404.83,159.08Z" transform="translate(0 0)"/><path class="cls-13" d="M388.51,148.76c5,3.62,11.85,7.29,16.56,11,1.07.15,2.88-2.22,2.39-4.29-3.49-3.27-7.34-7.05-9.4-8.66a12.18,12.18,0,0,0-5.29-2.41c-2.17-2-5.52-1.5-5.35.45C387.53,146.05,387.42,147.84,388.51,148.76Z" transform="translate(0 0)"/><path class="cls-13" d="M386.54,129c.48,6.15.62,12.55,1,17.49.38,4.11,5.16,3,6.17,1.38a182.38,182.38,0,0,0,2.52-21l-3.67.77-6.77-2.22Z" transform="translate(0 0)"/><path class="cls-12" d="M398.16,149.63c.31,1.05.63,1.18.83,1.89,1.45,5.06,3.84,11.51,5,16.56a3.18,3.18,0,0,0,4-2.32c-.7-4.73-1.24-10.58-1.85-13.13a16.47,16.47,0,0,0-2.51-5l-.07-.13c-.32-3.26-.12-11.33-1.75-16.12-1.24-3.65-3.31-5.26-4.6-7.2L386.1,127c.08.11,0,.31.14.42,1.64,2,3.68,4.37,6,7.26A133.42,133.42,0,0,1,398,149.22,2.46,2.46,0,0,0,398.16,149.63Z" transform="translate(0 0)"/><path class="cls-33" d="M370.53,85a3.15,3.15,0,0,0,1.26.73,1.33,1.33,0,0,0,.3,1c.07.09.44.43.75.72a8.88,8.88,0,0,1,.42.8c.24.57,1.17-.1,1.37-.32a1.91,1.91,0,0,0,.07-1.26c-.31-.52.11-2,.05-2.37s.07-1.16-.65-1.36l-2.88-.88-1.36,1.39Z" transform="translate(0 0)"/><path class="cls-22" d="M371.74,83.87h0l-.12-.09-.35.38.46,1.48-.56-1.52.35-.4-.42-.28-.39.42.45,1.48-.55-1.51.39-.46-.45-.3-.43.47.46,1.48L370,83.5l.46-.49-.21-.13-.06,0a1,1,0,0,0-.37.42,3.65,3.65,0,0,0,.77,1.82c.09.09.39.46.52.32.05.21.42.48.63.27.14.25.18.18.38.27s.84-.08,1.23-.29c0,.27,0,.54,0,.73.05.55.51,1.52,1.17,1.55h.08a1.23,1.23,0,0,0,.26-.08,1,1,0,0,0,.17-.1,1.59,1.59,0,0,0,.27-.21c.19-.22.76,0,.67-.2a5.36,5.36,0,0,1-.89-3.26c0-.29,0-1.41-.4-1.5-.73-.16-2,.77-2.53,1.46l-.44-.25Zm1.56,1h0l-.47.24c-.15.08-.12.06-.15-.12s.13-.22.28-.31l.23-.14c0,.07.05.15.08.23a.32.32,0,0,1,0,.09Zm.76-1.1a.71.71,0,0,0-.33-.5l0,0c1.06.16.9,1,.93,1.85l-.44-1C374.14,84,374.1,83.9,374.06,83.81Z" transform="translate(0 0)"/><path class="cls-21" d="M374.82,82.72a2.85,2.85,0,0,0-.89-.61c-.26-.14-.87-.4-1.11-.5a2.63,2.63,0,0,0-2,.61,5.69,5.69,0,0,0-1,1.13l.2.14,1-1,.21-.1-1.09,1.18v0a5.32,5.32,0,0,0,.5.29v0l1.08-1.26.11.11-1.09,1.18v.05c.16.08.31.16.46.22h0l1.09-1.26.1.11-1.09,1.19h0a4.55,4.55,0,0,0,.71.24c.41-.69,1.9-1.92,2.73-1.74A.24.24,0,0,1,374.82,82.72Z" transform="translate(0 0)"/><path class="cls-13" d="M380.73,97.05c-1.68-3.18-3.21-6.44-5-10.35a2.1,2.1,0,0,1-2.68,1.43c1.33,4.67,1.83,10.64,3.17,12.26a12.54,12.54,0,0,0,1.49,1.34c2.26,1.83,6.47,4.82,9.37,6.7,3.7,2.41,5.8-2,4.62-4.23C390.08,101.07,384.12,99.64,380.73,97.05Z" transform="translate(0 0)"/><path class="cls-6" d="M397.47,105.12c-1.74-.77-7.75-3.86-9.4-3.47a5.34,5.34,0,0,0-3.94,3,15.32,15.32,0,0,0-.58,8.16c.21,1.34.64,2.63,1,4.08.44,1.9.82,8,1.58,10.32,1.93,2.88,9.25,2.31,12.53-.43-.51-1-.19-9.13.08-9.94,1-3,2.11-6.21,1.9-8.37C400.43,106.69,398.84,105.72,397.47,105.12Z" transform="translate(0 0)"/><path class="cls-12" d="M388.37,101.52a22.83,22.83,0,0,1,5.95,1.5c3.6,1.49,7.19,3.25,7.3,5.51.19,3.77-2.56,7-2.67,11.27-.09,3.62,4.19,9.37,8.5,11.1-.47,1.76-2.82,3.86-4.57,3.5-5-2.06-14.5-14.55-9.41-29.49.37-1.1-1.44-1.43-3.39-1.86S387.6,101.51,388.37,101.52Z" transform="translate(0 0)"/><path class="cls-12" d="M385.86,126.32c-.72-2.9-1.15-5.42-1.55-8.11a60,60,0,0,1-1.15-8.54c0-3.23.52-6.2,2.63-7.69,1-.72,2-.59,5.07,0l-.08,1.14c-5.28,2.14-6.29,7.57-6.12,13.24C384.77,119.92,385.6,123.33,385.86,126.32Z" transform="translate(0 0)"/><path class="cls-15" d="M388,107c-1.54,3.48-.62,4.92.62,7.32,1.36,2.63.7,5.75.3,9.09a10.26,10.26,0,0,1-3.07,2.69,15.77,15.77,0,0,0-1-4.12,9.11,9.11,0,0,0,1.06-5.27c-.46-3-2-5.56,1.28-10-.18-1.25,0-1.5.26-1.64s.05-.22.93,0c.58.16,1.18.32,1,.94S389,106.64,388,107Z" transform="translate(0 0)"/><path class="cls-22" d="M393.64,102.88c.13,1.5-4.42,3.81-4.95,2.15-.33-1-.08-4.24-.46-5.64l3.94-1.94,1.43-.57C393.11,99.23,392.76,100.91,393.64,102.88Z" transform="translate(0 0)"/><path class="cls-18" d="M388.68,105c-.18-.46-.12-1.67-.25-2.32-.54.07-1.28,1.9-1.73,2.86A2.91,2.91,0,0,1,388.68,105Z" transform="translate(0 0)"/><path class="cls-18" d="M393.3,101.86c.08,1.26-3,2.68-4.82,3.11.47.56,1.07,1.25,1,1.81,1.33-.37,3.77-1.17,4.69-2.86C394.84,102.76,393.91,102.32,393.3,101.86Z" transform="translate(0 0)"/><path class="cls-24" d="M389,92.23c-.87.3-1.12,1-1.27,2.26a7.8,7.8,0,0,1,1.08-1.35Z" transform="translate(0 0)"/><path class="cls-21" d="M388.86,101.68c.6-.13,2-.32,2.56-.46,1.19-.32,1.42-1.24,2.22-2.49a2.63,2.63,0,0,0,1.89-1.19,4.3,4.3,0,0,0-.21-4.13,3.82,3.82,0,0,0-2.82-1.79c-2.41-.37-3.83.44-4.69,2.31a5.81,5.81,0,0,0-.28,1c0,.43.05.53,0,.83a1.39,1.39,0,0,1-.32.63,8.46,8.46,0,0,0-.47,4.35A2.3,2.3,0,0,0,388.86,101.68Z" transform="translate(0 0)"/><path class="cls-25" d="M389.83,94.35c.63-.12,3-.58,4.06-.83s2.23-.51,2.82.29a4.72,4.72,0,0,1-.2,3.33,6.91,6.91,0,0,1-3,2.71c-.51.29,0-1.37,0-1.75-.38.53-.67.72-.87.71s-.33,0-.11-.73c.33-1.17-.17-1.51.32-2.2s0-.59-.1-.87C391.87,94.81,391,95,389.83,94.35Z" transform="translate(0 0)"/><path class="cls-21" d="M394.15,97.55c1-.06.7,1,.39,1.57-.22.4-.57.27-.79.57a.86.86,0,0,1-.91.39c-.55-.17,0-.89.18-1.19C393.1,98.34,393.52,97.58,394.15,97.55Z" transform="translate(0 0)"/><path class="cls-26" d="M390.79,97.76a1.68,1.68,0,0,0-1.29-.71A1.19,1.19,0,0,1,390.79,97.76Z" transform="translate(0 0)"/><path class="cls-26" d="M388.23,96.29a.68.68,0,0,0-.68-.54,1,1,0,0,1,.65.61Z" transform="translate(0 0)"/><path class="cls-26" d="M388.19,96.77a2.43,2.43,0,0,1-.73.86c-.6.38-.51.68,0,1-.53-.44-.38-.58.07-1A2.56,2.56,0,0,0,388.19,96.77Z" transform="translate(0 0)"/><path class="cls-26" d="M390,97.68c-.18-.05-.17-.3-.07-.43a.2.2,0,0,1,.21-.06.25.25,0,0,1,.2.24A.28.28,0,0,1,390,97.68Z" transform="translate(0 0)"/><path class="cls-25" d="M388.87,90.2c.44.39,1,.07,3.1,0s4.87,1.08,4.78,3.53c0,.07,0,.14,0,.21a19.11,19.11,0,0,0-2.93.72c-1.57.34-3.28.42-4.36-.23C388.07,93.56,387.28,91.37,388.87,90.2Z" transform="translate(0 0)"/><path class="cls-26" d="M387.74,96.37c-.19-.05-.18-.3-.08-.43s.11-.08.22-.06a.25.25,0,0,1,.19.23A.28.28,0,0,1,387.74,96.37Z" transform="translate(0 0)"/><path class="cls-27" d="M387.08,99.26c.09,0,.11.09.2.15a.87.87,0,0,1,.32.19,1.75,1.75,0,0,0,1.16.5c-.55.05-1.37.29-1.74-.22-.11-.15,0-.33-.06-.44S386.9,99.2,387.08,99.26Z" transform="translate(0 0)"/><path class="cls-26" d="M387.05,99.46a2.14,2.14,0,0,0,1.26.63,2,2,0,0,1-1.28-.43v-.2Z" transform="translate(0 0)"/><path class="cls-16" d="M402.8,141.48c-.16-.37,0-.33.12-.57a.36.36,0,0,1,.07-.1l2.22-2.78c1.49-1.58,3.68,1.61,5,4.14l-1.89,2.42-4.19-.45Z" transform="translate(0 0)"/><path class="cls-16" d="M410.11,150.82l-2.53-6-.75-2,9.1-12,3.36,8a2.37,2.37,0,0,1,.15.58,1.76,1.76,0,0,1,0,.33,1.55,1.55,0,0,1,0,.15.87.87,0,0,1-.14.27l-9.1,12C410.39,151.8,410.34,151.37,410.11,150.82Z" transform="translate(0 0)"/><path class="cls-28" d="M402.45,142.26l4.38.54,3.36,8c.46,1.1-.13,1.87-1.33,1.72h0a4.17,4.17,0,0,1-3-2.26Z" transform="translate(0 0)"/><polygon class="cls-29" points="413.86 142.5 413.18 142.42 414.03 144.43 414.72 144.52 414.26 143.35 413.86 142.5"/><path class="cls-15" d="M411.61,128.73a1.49,1.49,0,0,1,.47-.39,2.73,2.73,0,0,1,1.87,0,5.16,5.16,0,0,1,1.35.67,4.94,4.94,0,0,1,1.55,1.7,2.4,2.4,0,0,1,.11.23l1,2.38-3,8.24-.81,1.06-5.35,2.69-.08,0-.5-1.09a11.4,11.4,0,0,0-1.95-2.94c-.81-.65-3-1.52-3.82-.56Z" transform="translate(0 0)"/><path class="cls-28" d="M403.22,140.28c-.85.22-1.19,1-.75,2.05l1.22,2.92.94.11-1.22-2.91a1,1,0,0,1,0-1c.59-.76,2.11-.06,2.62.35a2.85,2.85,0,0,1,.86,1.09l1,2.37.94.12-1-2.38a5.07,5.07,0,0,0-2-2.29A3.57,3.57,0,0,0,403.22,140.28Z" transform="translate(0 0)"/><polygon class="cls-29" points="413.86 142.5 413.61 142.47 414.46 144.49 414.72 144.52 414.26 143.35 413.86 142.5"/><polygon class="cls-30" points="415.02 140.96 414.35 141.95 413.86 142.5 413.61 142.47 414.76 140.93 415.02 140.96"/><polygon class="cls-31" points="415.02 140.96 413.86 142.5 414.72 144.52 415.87 142.97 415.02 140.96"/><path class="cls-32" d="M409.45,132.08l0-.07h0l0-.07h0l0,0h0l-.06-.05-.1,0h0l-.1,0,1,.13.09,0h0l.09,0h0l.06,0h0l0,0v0h0l0,0v0h0l0,0,0,0h0s0,0,0,0a.05.05,0,0,1,0,0h0l.19.44-1-.13-.19-.44,0-.09Z" transform="translate(0 0)"/><path class="cls-15" d="M408.22,131.48l0,0,0,0h0l0,0,0,0h0l0,0,0,0,0,0h0l.06,0,0,0h0l.06,0h.07l.08,0h.24l1,.12a1.52,1.52,0,0,0-.89.6h-.05L408,133.36h0a3.08,3.08,0,0,0-.42,2.53h0l.18.44-1-.13-.19-.44h0v0h0v0h0a.14.14,0,0,0,0-.06h0c0-.08,0-.15-.05-.22v-.08a3.15,3.15,0,0,1,0-.53,3.39,3.39,0,0,1,.1-.77.54.54,0,0,1,0-.1s0-.07,0-.08a2.78,2.78,0,0,1,.4-.81h0l1.3-1.71Z" transform="translate(0 0)"/><path class="cls-16" d="M407.91,133.36l1.31-1.71a.88.88,0,0,1,1.66.19l.19.44-.36.47-.19-.44a.57.57,0,0,0-1.07-.13l-1.31,1.72a2,2,0,0,0-.23,1.84l.18.44-.36.47-.18-.44A3.14,3.14,0,0,1,407.91,133.36Z" transform="translate(0 0)"/><path class="cls-22" d="M409.65,129c.33,2.21,1.08,3.17,1,3.66a13.11,13.11,0,0,1-2,3.17c-.17.17-.67,0-.75,0-.4-.38-.16-1.1-.49-2a.44.44,0,0,0-.77-.18c-.27.26-.27.82-.34,1.15-.19-1.28-.81-2.2-.22-3.3a3.42,3.42,0,0,0,.64-1.77Z" transform="translate(0 0)"/><path class="cls-12" d="M398.55,105.7c1.43-.47,3.33.9,4.08,2,1.71,2.55,3.42,7.49,5,10.61.93,3.81,1.8,6.89,2.44,10.76-.43.95-2.88,2.69-3.75,1.39-.91-3.25-2.32-7-2.53-10.39a30.18,30.18,0,0,1-3.77-4.71C398.83,113.64,395.16,106.8,398.55,105.7Z" transform="translate(0 0)"/><path class="cls-6" d="M482.22,320.85c-4-6.87-17.29-4.13-18.42,1.26-12.05-.59-18.26,15.66-3.47,21.07-8,9,13.28,21.9,20.35,15.2,2.55,8.28,17.52,8.61,18.93.27,7.68,4.09,16.75-4.07,14.29-8,7.75,2,17.28-13.78.18-18.18-.79-6.54-8.7-11.59-16.67-5.73C495.76,322.14,485.69,317.16,482.22,320.85Z" transform="translate(0 0)"/><path class="cls-7" d="M454.15,326.24c-4.2,5.05-3.6,13.36,6.18,16.94-8,9,13.28,21.9,20.35,15.2,2.55,8.28,17.52,8.61,18.93.27,7.68,4.09,16.75-4.07,14.29-8,6.42,1.68,14.06-8.89,6.77-15.06,6.76,7.58-3.18,14.92-8.57,12.09,2.29,3.69-5.47,14.76-14.08,8.3-1.31,7.79-15.41,8.47-17.8-.91-6.61,6.26-24.68-5.51-17.22-13.94C451.32,337.77,452.25,331.12,454.15,326.24Z" transform="translate(0 0)"/><path class="cls-6" d="M484.68,316.52c-3.09-6.17-14.72-5.8-16-1.2-7.36-.59-12.71,7.53-.21,13-5,5,1.59,9.27,7.1,9.4C476,340.46,480,343,483,342c1.9,4.63,14.81,8.26,15.07,1,6.31,3.05,9.53-1.36,7.64-4.92,6.12,2.24,15.38-7,.81-13.33-.31-5.71-7.16-8.92-12.25-6.11C493.07,314.54,487.89,313.52,484.68,316.52Z" transform="translate(0 0)"/><path class="cls-7" d="M463.09,316.85c-3.83,2.7-3,8.37,5.39,11.51-5,5,1.59,9.27,7.1,9.4C476,340.46,480,343,483,342c1.9,4.63,14.81,8.26,15.07,1,6.31,3.05,9.53-1.36,7.64-4.92,5.32,2,13-4.78,5.36-10.73,5.38,5.16,1,9.69-7.07,9.38,2.1,4.67-5.91,6.46-7.23,2.84.12,7.47-11.22,4.29-11.91-.73-4.36,2-9.54-.44-8.06-4.22-7.08.21-9.69-3.62-6.32-7.56C464.26,324.59,459.45,321.85,463.09,316.85Z" transform="translate(0 0)"/><path class="cls-6" d="M477.1,262.58c-.21,7.41,9,51.4,1.16,53.39-4.19,1.07-5,5.36,3.45,9.1,1.44,3.22,11,9.41,12.81,2.59,7.79.79,5.57-4,2.23-7a15.17,15.17,0,0,1-3.09-3C489,310.56,480.18,271.59,477.1,262.58Z" transform="translate(0 0)"/><path class="cls-7" d="M482.85,288.14v.05c1.46,6.39,5.82,20.65,10.1,29.7a9.83,9.83,0,0,0,2.51,3.49c4.56,3.87.46,5.75-2.62,3.86.15,4.5-8.47,3.69-11.4-1-6.21-.94-6.29-4.69-5-7.48-4.36,2.25-3.87,7.68,3.91,8.56,1.44,3.22,12.44,9.16,14.21,2.34,7.79.79,6.9-6.37,2.93-7.09-1.46-.27-3.08-2.09-4.08-3.72C488.94,309.58,485.83,296.9,482.85,288.14Z" transform="translate(0 0)"/><path class="cls-8" d="M478.64,270.57c.83-1.84,3.13-8.74,3.29-10.62l.85,2.09c2.07-7.59,1-10-2.53-16.24l-11.49,1.7c-.74,7.25-1.17,9.88,3.53,16.43l.07-2.26A64.61,64.61,0,0,0,478.64,270.57Z" transform="translate(0 0)"/><path class="cls-9" d="M477.58,264.25a44,44,0,0,0,2.32-7.5l.61,1.48c1.45-5.36.71-7.09-1.79-11.47l-8.11,1.2c-.53,5.12-.83,7,2.49,11.6l0-1.59A45.42,45.42,0,0,0,477.58,264.25Z" transform="translate(0 0)"/><path class="cls-10" d="M476.81,259.69a32.42,32.42,0,0,0,1.7-5.49l.44,1.08c1.07-3.92.52-5.19-1.3-8.39l-5.94.88c-.39,3.74-.61,5.1,1.82,8.49l0-1.17A34.18,34.18,0,0,0,476.81,259.69Z" transform="translate(0 0)"/><path class="cls-11" d="M466.36,251.21c-1.33-2.68-2.39-5.11-3.71-7.76l19.25-2.94c.37-.64,1.55-.18,1.62-.8h0c-.24,2.89-.39,5.64-.79,8.56a4.56,4.56,0,0,1-1.79,3.14,11.16,11.16,0,0,1-5.8,2.43C472.08,254.28,468.08,254.28,466.36,251.21Z" transform="translate(0 0)"/><path class="cls-12" d="M477.66,241.15l4.24-.64c.37-.64,1.55-.18,1.62-.8h0c-.24,2.89-.39,5.64-.79,8.56a4.56,4.56,0,0,1-1.79,3.14,11.38,11.38,0,0,1-5.8,2.43c-3,.43-6.81.44-8.61-2.35,2.39,2.52,8.35,1.6,10.28.53C477.17,248.34,477.47,244.72,477.66,241.15Z" transform="translate(0 0)"/><path class="cls-13" d="M464.55,237.63c3.65-3.16,10.35-4.41,15-2.8s5.38,5.48,1.74,8.63-10.35,4.41-15,2.79S460.91,240.78,464.55,237.63Z" transform="translate(0 0)"/><path class="cls-6" d="M452.11,214.1a47.35,47.35,0,0,1,.69-11.78c.2-1.06.44-2.11.73-3.15,5.09-16.55,11.07-21.19,23.47-4.42.5.68.95,1.38,1.41,2.1a47.78,47.78,0,0,1,5,10.81c2.84,8.89,3.34,21.32.61,30.24a12.89,12.89,0,0,1-1,2.61,6.92,6.92,0,0,1-1.62,2,16.92,16.92,0,0,1-15.06,2.81,6.93,6.93,0,0,1-3.22-2.09c-.67-.75-1.39-1.78-1.88-2.46C456.17,233.7,452.72,223,452.11,214.1Z" transform="translate(0 0)"/><path class="cls-14" d="M477,194.75a45.34,45.34,0,0,1,4.58,8.11,47.51,47.51,0,0,1,2.37,6.66c2.34,8.7,2.6,20.06.06,28.38a12.89,12.89,0,0,1-1,2.61c-1.85,3.36-6.71,5-10.29,5.41a14.89,14.89,0,0,1-6.39-.61,6.41,6.41,0,0,1-3.2-2.07c3.91,2.9,10.73,1.78,14.69-.43,2.28-13.81,2-27.25-3.55-38.25-1.27.6-12.12,4.11-17.4-.67l19.88-9c-.25-.38-.51-.75-.78-1.12a53,53,0,0,0-5.42-6.38A47.23,47.23,0,0,1,477,194.75Z" transform="translate(0 0)"/><path class="cls-15" d="M453.93,197.69c1.58-5.27,4.19-11.63,8-15.64l.25-.26a1,1,0,0,1,.45-.3,1,1,0,0,1,.5.14c5.24,2.55,10.31,7.85,13.56,12.49a5.18,5.18,0,0,1,.52.88,4.76,4.76,0,0,1-.77,4.84,11.5,11.5,0,0,1-3.95,3.24l-.61.33a19.67,19.67,0,0,1-13.29,1.28,8.66,8.66,0,0,1-3.75-2.16,4.64,4.64,0,0,1-1.06-1.78,4,4,0,0,1-.19-1.36A6.94,6.94,0,0,1,453.93,197.69Z" transform="translate(0 0)"/><path class="cls-16" d="M462.55,181.51l.07,0a1,1,0,0,1,.5.14c5.24,2.55,10.31,7.85,13.56,12.49a5.18,5.18,0,0,1,.52.88,4.76,4.76,0,0,1-.77,4.84l0,.06v0l0,.05h0l-.09.12h0l0,0h0l0,.06h0l-.09.12h0l-.16.18h0l-.05.05h0l-.17.18h0c-.06.06-.12.11-.17.17h0l-.12.11h0l-.06.05h0l-.36.33h0l-.05.05h0l-.12.1h0l-.05,0h0l-.12.1h0l-.05,0h0l0,0h0l-.06,0v0l0,0h0l0,0h0l-.06,0h0l-.06,0h0l0,0h0l-.06,0,0,0,0,0,0,0,0,0h0l-.06,0,0,0,0,0h0l0,0,0,0,0,0h0l-.05,0h0c-.34.21-.68.41-1,.59l-.61.33a19.67,19.67,0,0,1-13.29,1.28,8.48,8.48,0,0,1-3.88-2.3c1.76,1.27,8.94,5,18.26-1.62A75.25,75.25,0,0,0,462.55,181.51Z" transform="translate(0 0)"/><path class="cls-17" d="M467.67,210a8.39,8.39,0,1,0,9.92,6.78A8.49,8.49,0,0,0,467.67,210Z" transform="translate(0 0)"/><path class="cls-18" d="M470.09,223.74a5.55,5.55,0,1,0-6.44-4.51,5.55,5.55,0,0,0,6.44,4.51Zm-2.36-13.4a8.05,8.05,0,1,1-6.54,9.33A8.07,8.07,0,0,1,467.73,210.34Z" transform="translate(0 0)"/><path class="cls-19" d="M470.09,223.74a5.55,5.55,0,1,1,4.51-6.44A5.57,5.57,0,0,1,470.09,223.74Z" transform="translate(0 0)"/><path class="cls-13" d="M468.16,212.8a5.55,5.55,0,0,0-4.51,6.43,5.14,5.14,0,0,0,.27,1,5.56,5.56,0,0,1,10.77-1.89,6.06,6.06,0,0,0-.09-1A5.55,5.55,0,0,0,468.16,212.8Z" transform="translate(0 0)"/><path class="cls-19" d="M468.09,212.41a.58.58,0,0,1-.68-.47.59.59,0,1,1,1.16-.21A.58.58,0,0,1,468.09,212.41Z" transform="translate(0 0)"/><path class="cls-19" d="M470.36,225.29a.59.59,0,0,1-.2-1.17.58.58,0,0,1,.68.48A.59.59,0,0,1,470.36,225.29Z" transform="translate(0 0)"/><path class="cls-19" d="M462.1,219.51a.59.59,0,1,0,.48-.69A.6.6,0,0,0,462.1,219.51Z" transform="translate(0 0)"/><path class="cls-19" d="M475,217.24a.59.59,0,0,0,.68.48.6.6,0,0,0,.48-.69.58.58,0,0,0-.68-.48A.59.59,0,0,0,475,217.24Z" transform="translate(0 0)"/><path class="cls-19" d="M463.28,214.18a.59.59,0,0,0,.15.82.59.59,0,0,0,.68-1A.6.6,0,0,0,463.28,214.18Z" transform="translate(0 0)"/><path class="cls-19" d="M474,221.68a.59.59,0,1,0,.82-.15A.59.59,0,0,0,474,221.68Z" transform="translate(0 0)"/><path class="cls-19" d="M465,224.11a.6.6,0,0,0,.83-.15.59.59,0,0,0-1-.68A.6.6,0,0,0,465,224.11Z" transform="translate(0 0)"/><path class="cls-19" d="M472.54,213.4a.59.59,0,0,0,.82-.15.58.58,0,0,0-.14-.82.59.59,0,1,0-.68,1Z" transform="translate(0 0)"/><polygon class="cls-20" points="462.69 242.04 462.48 241.76 462.71 242.06 462.69 242.04 462.69 242.04"/><path class="cls-15" d="M457.82,232.38l3.06,1.12c-2.35,13.68-.53,21.13,1.26,32.5l-3.06-1.12h0c-1.44-5.27-3.64-10.81-4.31-16.15a25.86,25.86,0,0,1,.06-7.24A31.2,31.2,0,0,1,457.82,232.38Z" transform="translate(0 0)"/><path class="cls-16" d="M460.88,233.5l5.1,12.39A83.18,83.18,0,0,0,462.14,266C459.05,254.7,454.38,246.7,460.88,233.5Z" transform="translate(0 0)"/><path class="cls-15" d="M484.58,227.66l-2.49,2.1c6.88,12.05,7.72,19.68,9.93,31l2.49-2.1h0c-.45-5.44-.28-11.39-1.47-16.64a25.73,25.73,0,0,0-2.54-6.78A30.9,30.9,0,0,0,484.58,227.66Z" transform="translate(0 0)"/><path class="cls-16" d="M482.09,229.76l-.56,13.39A83.53,83.53,0,0,1,492,260.73C491.06,249.05,492.7,239.94,482.09,229.76Z" transform="translate(0 0)"/><path class="cls-23" d="M465.85,259.41a6.37,6.37,0,0,1,0,2.34,15.82,15.82,0,0,1-2.15,4.64c-.53.91-.45,1.52.57,1.63a5.47,5.47,0,0,0,3.09-1.22c1.6-1.25,1.76-3,2.24-3.57l.51-.11a5.32,5.32,0,0,0,1.7-2,10.79,10.79,0,0,0-.41-1.5c-.64-1.53-.85-1.2-1.8-2.2C468.3,258.17,467.2,258.72,465.85,259.41Z" transform="translate(0 0)"/><path class="cls-13" d="M446.35,220.41a22.52,22.52,0,0,0,.66,3.85,194.21,194.21,0,0,0,9.07,18c3.1,4.93,7.08,12.74,9.83,17.85a3.27,3.27,0,0,0,4.07-2.44c-1.77-4.23-3.66-11-4.83-13.18A10.26,10.26,0,0,0,462,240.9c-1.14-3.84-5.19-15.35-7.21-19.3l-4,.21-2.48-.64Z" transform="translate(0 0)"/><path class="cls-23" d="M465.77,243.22l-.21-.46.09-2c.16-2,1.36-2.33,2.46-2.57,1.75-.39,2.76,2.19,2.32,3.36a2.89,2.89,0,0,0-.12,2,5.3,5.3,0,0,1-.3,4.29c-.49.76-2.13,2.16-3.26,1.87-.53-.13-.4-.75-.37-1.15A21.27,21.27,0,0,0,465.77,243.22Z" transform="translate(0 0)"/><path class="cls-12" d="M467.15,238.42c-2.5-.13-9.26-.33-11.52-.48-10-.66-12.54,5.23-10.9,6.8a3,3,0,0,0,2,.67c4.61-.22,15.19-1.55,19.93-2.11C469.89,242.91,468.81,238.6,467.15,238.42Z" transform="translate(0 0)"/><path class="cls-12" d="M459,220.18a8.44,8.44,0,0,1,3.3,7.84c-.36,3.15-4.37,6.59-8.13,10.64-.66.71-3.71,4.82-6.44,6-1.06.47-2.67.72-3.18-.18a5.07,5.07,0,0,1-.1-4.1,41.67,41.67,0,0,1,8.32-13.8l-4.45-5.43Z" transform="translate(0 0)"/><path class="cls-33" d="M430.68,179.47a3.27,3.27,0,0,0,1.26.73,1.34,1.34,0,0,0,.3,1.05c.07.09.45.42.75.72a6.59,6.59,0,0,1,.42.79c.24.58,1.18-.1,1.37-.32a1.84,1.84,0,0,0,.07-1.26c-.31-.52.12-2,0-2.37s.07-1.15-.65-1.35l-2.88-.88L430,178Z" transform="translate(0 0)"/><path class="cls-22" d="M431.89,178.37v0l-.12-.08-.35.37.46,1.48-.56-1.51.35-.4-.42-.29-.39.43.45,1.48-.55-1.52.39-.45-.44-.3-.44.47.46,1.48-.56-1.52.46-.48-.2-.14-.07,0a1.13,1.13,0,0,0-.37.43,3.69,3.69,0,0,0,.77,1.82c.1.09.4.45.52.32.05.2.42.48.63.26.14.26.18.19.38.27s.84-.08,1.23-.29c0,.28,0,.54,0,.74.05.55.51,1.52,1.17,1.55h.08a.78.78,0,0,0,.26-.07l.18-.1a1.49,1.49,0,0,0,.26-.22c.19-.22.77,0,.67-.19a5.38,5.38,0,0,1-.89-3.26c0-.3,0-1.41-.4-1.5-.72-.16-2,.77-2.53,1.46l-.44-.25Zm1.56,1h0l-.47.24c-.15.08-.11.07-.14-.11s.13-.22.27-.32l.24-.13a1.27,1.27,0,0,0,.08.23.29.29,0,0,1,0,.09Zm.76-1.11a.71.71,0,0,0-.33-.5l0,0c1,.17.89,1,.92,1.85l-.44-1.05Z" transform="translate(0 0)"/><path class="cls-21" d="M435,177.21a2.74,2.74,0,0,0-.89-.6c-.26-.14-.86-.41-1.11-.51a2.64,2.64,0,0,0-2,.62,5.55,5.55,0,0,0-1,1.12l.19.14,1-1,.21-.11L430.27,178h0c.16.11.33.21.49.3v0l1.09-1.26.1.11-1.09,1.19v0a3.81,3.81,0,0,0,.46.22h0l1.09-1.26.1.11-1.09,1.18v0a4,4,0,0,0,.7.23c.41-.68,1.9-1.91,2.73-1.73Z" transform="translate(0 0)"/><path class="cls-13" d="M440.88,191.54c-1.67-3.17-3.21-6.44-4.95-10.35a2.1,2.1,0,0,1-2.68,1.44c1.33,4.67,1.83,10.64,3.17,12.26a14.58,14.58,0,0,0,1.49,1.34c2.26,1.83,6.47,4.81,9.37,6.69,3.7,2.42,5.8-2,4.63-4.23C450.23,195.57,444.27,194.14,440.88,191.54Z" transform="translate(0 0)"/><path class="cls-6" d="M457.62,199.61c-1.74-.76-7.75-3.85-9.4-3.46a5.34,5.34,0,0,0-3.94,3,15.52,15.52,0,0,0-.58,8.16c.21,1.34.64,2.62,1,4.08.44,1.9,1.26,7.95,1.76,10.23,1.92,2.87,9.07,2.4,12.35-.34-.51-1-.19-9.13.08-9.95,1-3,2.11-6.21,1.9-8.36C460.58,201.18,459,200.22,457.62,199.61Z" transform="translate(0 0)"/><path class="cls-12" d="M448.52,196a22.83,22.83,0,0,1,6,1.51c3.6,1.48,7.19,3.24,7.3,5.5.19,3.78-2.56,7-2.67,11.27-.09,3.63,4.2,9.38,8.5,11.1-.47,1.77-2.82,3.86-4.57,3.5-5-2-14.5-14.54-9.41-29.48.37-1.11-1.44-1.44-3.39-1.86S447.75,196,448.52,196Z" transform="translate(0 0)"/><path class="cls-12" d="M446,220.82c-.72-2.91-1.15-5.42-1.55-8.12a61.16,61.16,0,0,1-1.15-8.53c0-3.24.52-6.2,2.63-7.69,1-.73,2-.6,5.07,0l-.08,1.14c-5.28,2.13-6.29,7.57-6.12,13.23C444.92,214.41,445.75,217.83,446,220.82Z" transform="translate(0 0)"/><path class="cls-15" d="M448.16,201.5c-1.54,3.48-.62,4.91.63,7.32,1.35,2.62.69,5.75.3,9.09A10.57,10.57,0,0,1,446,220.6a15.77,15.77,0,0,0-1-4.12,9.13,9.13,0,0,0,1.06-5.27c-.46-3-2-5.57,1.29-10.06-.19-1.24,0-1.49.25-1.63s.05-.23.94,0c.58.17,1.17.33,1,1C449.39,201,449.13,201.13,448.16,201.5Z" transform="translate(0 0)"/><path class="cls-22" d="M453.79,197.38c.13,1.5-4.41,3.81-5,2.14-.33-1-.07-4.24-.46-5.63l3.94-1.94,1.43-.57C453.26,193.72,452.91,195.41,453.79,197.38Z" transform="translate(0 0)"/><path class="cls-18" d="M448.83,199.45c-.18-.45-.12-1.67-.25-2.31-.54.06-1.28,1.9-1.73,2.85A2.93,2.93,0,0,1,448.83,199.45Z" transform="translate(0 0)"/><path class="cls-18" d="M453.46,196.36c.07,1.26-3,2.67-4.82,3.11.46.55,1.06,1.25,1,1.8,1.33-.36,3.77-1.17,4.69-2.86C455,197.26,454.06,196.82,453.46,196.36Z" transform="translate(0 0)"/><path class="cls-25" d="M449.23,186c-.87.3-1.25,1.76-1.4,3a6.79,6.79,0,0,1,1.09-1.35Z" transform="translate(0 0)"/><path class="cls-21" d="M449,196.18c.6-.13,2-.32,2.56-.47,1.2-.32,1.42-1.23,2.22-2.49a2.61,2.61,0,0,0,1.89-1.18,4.3,4.3,0,0,0-.21-4.13,3.77,3.77,0,0,0-2.81-1.79c-2.42-.37-3.83.44-4.7,2.3a6.65,6.65,0,0,0-.28,1c0,.43.06.53,0,.82a1.32,1.32,0,0,1-.32.64,8.42,8.42,0,0,0-.47,4.34A2.31,2.31,0,0,0,449,196.18Z" transform="translate(0 0)"/><path class="cls-25" d="M450,188.84c.63-.12,3-.57,4.06-.82s2.24-.52,2.83.28a4.76,4.76,0,0,1-.21,3.33,6.85,6.85,0,0,1-3,2.71c-.51.3,0-1.36,0-1.75-.39.54-.68.73-.88.71s-.33,0-.11-.73c.34-1.16-.17-1.51.32-2.19s0-.6-.1-.87C452,189.3,451.11,189.5,450,188.84Z" transform="translate(0 0)"/><path class="cls-21" d="M454.3,192c1,0,.7,1,.39,1.57-.22.41-.57.28-.79.58a.86.86,0,0,1-.91.38c-.55-.17,0-.88.18-1.19C453.25,192.84,453.67,192.08,454.3,192Z" transform="translate(0 0)"/><path class="cls-26" d="M450.94,192.26a1.68,1.68,0,0,0-1.29-.71A1.17,1.17,0,0,1,450.94,192.26Z" transform="translate(0 0)"/><path class="cls-26" d="M448.38,190.79a.69.69,0,0,0-.67-.55,1,1,0,0,1,.64.62Z" transform="translate(0 0)"/><path class="cls-26" d="M448.34,191.27a2.43,2.43,0,0,1-.73.86c-.6.38-.51.68,0,1-.53-.43-.38-.58.07-.95A2.66,2.66,0,0,0,448.34,191.27Z" transform="translate(0 0)"/><path class="cls-26" d="M450.2,192.17c-.19,0-.18-.3-.08-.42s.1-.08.21-.07a.26.26,0,0,1,.2.24A.27.27,0,0,1,450.2,192.17Z" transform="translate(0 0)"/><path class="cls-25" d="M452.12,184.66c2.17-.11,4.87,1.08,4.78,3.52a1.48,1.48,0,0,1,0,.21,19.11,19.11,0,0,0-2.93.72,6.16,6.16,0,0,1-4.3-.33,3.28,3.28,0,0,1-1.4-1.61C447.71,185.56,451.06,184.71,452.12,184.66Z" transform="translate(0 0)"/><path class="cls-26" d="M447.89,190.86c-.19-.05-.17-.3-.08-.42a.2.2,0,0,1,.22-.07.26.26,0,0,1,.19.24A.27.27,0,0,1,447.89,190.86Z" transform="translate(0 0)"/><path class="cls-27" d="M447.23,193.76c.09,0,.11.08.2.15a.87.87,0,0,1,.32.18,1.66,1.66,0,0,0,1.17.5c-.56.06-1.38.29-1.75-.22-.1-.14,0-.32-.06-.43S447.05,193.7,447.23,193.76Z" transform="translate(0 0)"/><path class="cls-26" d="M447.2,194a2.09,2.09,0,0,0,1.26.64,2.12,2.12,0,0,1-1.28-.43l0-.18Z" transform="translate(0 0)"/><path class="cls-16" d="M458.13,228.5c-.12-.34,0-.3.15-.51l.06-.08,2.17-2.38c1.43-1.34,3.22,1.66,4.29,4L463,231.62l-3.74-.64Z" transform="translate(0 0)"/><path class="cls-16" d="M464.18,237.33l-1.93-5.6-.56-1.81,8.88-10.27,2.57,7.39a2.15,2.15,0,0,1,.1.52,1.55,1.55,0,0,1,0,.31.69.69,0,0,1,0,.13.79.79,0,0,1-.14.23l-8.88,10.26C464.37,238.23,464.35,237.84,464.18,237.33Z" transform="translate(0 0)"/><path class="cls-28" d="M457.78,229.18l3.91.74,2.56,7.39c.35,1-.23,1.67-1.3,1.47h0a3.72,3.72,0,0,1-2.57-2.2Z" transform="translate(0 0)"/><polygon class="cls-29" points="468.04 230.06 467.42 229.94 468.08 231.81 468.69 231.93 468.34 230.85 468.04 230.06"/><path class="cls-15" d="M466.81,217.53a1.38,1.38,0,0,1,.44-.32,2.48,2.48,0,0,1,1.68.13,4.35,4.35,0,0,1,1.18.69,4.43,4.43,0,0,1,1.3,1.62,1.8,1.8,0,0,1,.08.21l.77,2.2-3.13,7.24-.79.92-5,2.1-.07,0-.39-1a10.55,10.55,0,0,0-1.58-2.76c-.7-.63-2.65-1.54-3.41-.72Z" transform="translate(0 0)"/><path class="cls-28" d="M458.58,227.44c-.77.15-1.12.85-.79,1.81l.93,2.69.84.16-.93-2.69a.93.93,0,0,1,.09-.94c.57-.65,1.9.07,2.34.47a2.69,2.69,0,0,1,.71,1l.76,2.19.84.16-.76-2.19A4.52,4.52,0,0,0,461,228,3.23,3.23,0,0,0,458.58,227.44Z" transform="translate(0 0)"/><polygon class="cls-29" points="468.04 230.06 467.81 230.02 468.46 231.88 468.69 231.93 468.34 230.85 468.04 230.06"/><polygon class="cls-30" points="469.17 228.74 468.51 229.59 468.04 230.06 467.81 230.02 468.94 228.69 469.17 228.74"/><polygon class="cls-31" points="469.17 228.74 468.04 230.06 468.69 231.93 469.82 230.6 469.17 228.74"/><path class="cls-16" d="M464.67,220.43l0-.07h0l0-.06h0l0-.05h0l0,0-.08-.05h0l-.08,0,.91.18.09,0h0l.08,0h0l.05.05h0l0,0h0l0,0h0l0,0v0h0l0,0v0h0l.15.41-.92-.18-.14-.4,0-.09Z" transform="translate(0 0)"/><path class="cls-15" d="M463.6,219.81l0,0,0,0h0l.05,0s0,0,0,0h0l0,0,.05,0,0,0h0l0,0H464l.06,0h.35l.92.18a1.31,1.31,0,0,0-.84.48h0l-1.22,1.39h0a2.77,2.77,0,0,0-.53,2.25h0l.14.41-.91-.18-.15-.4h0v0h0v0h0s0,0,0-.06h0a1.42,1.42,0,0,1,0-.2v0h0v0a2.57,2.57,0,0,1,0-.48,3,3,0,0,1,.14-.68l0-.1,0-.07a2.51,2.51,0,0,1,.41-.7h0l1.27-1.47Z" transform="translate(0 0)"/><path class="cls-28" d="M463.21,221.48l1.27-1.46c.55-.63,1.22-.51,1.49.27l.14.41-.34.4-.15-.41c-.17-.5-.61-.58-1-.17L463.38,222a1.85,1.85,0,0,0-.31,1.65l.14.4-.35.41-.14-.41A2.83,2.83,0,0,1,463.21,221.48Z" transform="translate(0 0)"/><path class="cls-21" d="M465.56,217.13c.13,2.26.8,3.29.72,3.79a13.56,13.56,0,0,1-2.29,3c-.19.15-.68,0-.75-.1-.36-.41-.06-1.12-.32-2.05a.43.43,0,0,0-.75-.24c-.29.22-.34.79-.44,1.12-.08-1.3-.62-2.29.06-3.34a18.64,18.64,0,0,1,1.84-2.86Z" transform="translate(0 0)"/><path class="cls-22" d="M465.56,217.13c.13,2.26.8,3.29.72,3.79a13.82,13.82,0,0,1-2.16,2.89,6.65,6.65,0,0,0-.05-2.47c-.24-2-1-3.26.27-4.77Z" transform="translate(0 0)"/><path class="cls-12" d="M460.34,200.37c-2.66-.69-3.72,1.67-3.79,3.79-.1,3,1.05,2.64,3.62,3.38l8.72,1.45c2.67.45,4.15-.34,4.47-1.18a1.81,1.81,0,0,0-.18-1.64c-.32-.68-2.19-1.75-3.73-2.21C466.88,203.2,463.32,201.32,460.34,200.37Z" transform="translate(0 0)"/><path class="cls-12" d="M473.38,207.86c-1,2.42-4.9,7.39-7.06,10.66-.72,1.11-3-.42-3.3-1.34,1.78-3.87,3.56-8.19,5-10.51.67-1.1,2.3-1,3.41-1S474,206.39,473.38,207.86Z" transform="translate(0 0)"/><path class="cls-7" d="M187.58,337.41l20.8-11.76c2.27-1,5.51-1.84,7.82-.65,2.11,1.09,5.58,3.31,7.11,4.18,1.16.66,5.21,3.06,2.69,4.42-7.41,4-14.74,8.5-22.26,12.56a10.63,10.63,0,0,1-5.69.87,15,15,0,0,1-6.16-1.83l-3.69-2.13c-1.63-.94-2.5-2.05-2.58-3.09S186.18,338,187.58,337.41Z" transform="translate(0 0)"/><path class="cls-13" d="M226.05,264.12c-1,1.36-6,5.31-10.58,7.29-1.32.57-2.72-1.28-3.11-2.44a2.84,2.84,0,0,1,.5-2.66,9.47,9.47,0,0,1,4.13-2.22c1.29-.4,2.92-1.86,4.19-2.43a6.69,6.69,0,0,1,2.57-1.14C226.14,260.15,227.59,262.27,226.05,264.12Z" transform="translate(0 0)"/><path class="cls-21" d="M227.23,249.92a4.26,4.26,0,0,0,.25-1c0-.35-.22-.37-.41-.87a13.7,13.7,0,0,1-.32-1.49,4.67,4.67,0,0,1,0-1.4.65.65,0,0,1,.66-.7,5.38,5.38,0,0,1,.7.11A2.79,2.79,0,0,1,229,244a.72.72,0,0,1,.89.06A4.57,4.57,0,0,1,231,245a7.91,7.91,0,0,1,.65,1.67c.18.6.22.84,0,1.22a9.7,9.7,0,0,1-1.14,1.52,7.48,7.48,0,0,0-.85,1.66c-1.24,4.24-1.16,8.25-3.14,12a1.42,1.42,0,0,1-.8.74c-.57.22-1.62-.48-2.33-.7l0-3.88C223.68,257.17,225.67,253.07,227.23,249.92Z" transform="translate(0 0)"/><path class="cls-22" d="M229.56,251.38a3.86,3.86,0,0,1-1.11-.12c.14-.31.2-.55.64-1.64a2.68,2.68,0,0,1,1.4-1.71c-.32-.11-.25,0-.49-.26-.12.28-.44.47-.55.39a.55.55,0,0,1-.15-.5,1,1,0,0,1,.76-.72,7.18,7.18,0,0,1,1.77.62,1,1,0,0,1-.14.41,9.7,9.7,0,0,1-1.14,1.52A8.6,8.6,0,0,0,229.56,251.38Z" transform="translate(0 0)"/><path class="cls-21" d="M227.57,244.49l.55.1A2.79,2.79,0,0,1,229,244a.72.72,0,0,1,.89.06A4.57,4.57,0,0,1,231,245a7.91,7.91,0,0,1,.65,1.67,2.06,2.06,0,0,1,.14.89c-.59-.19-1.25-.47-1.83-.71-.22.13-1,.77-.51,1.24a5.65,5.65,0,0,1-1-1.75,14.56,14.56,0,0,1-.71-1.72Z" transform="translate(0 0)"/><path class="cls-22" d="M227.57,244.49l.55.1A2.79,2.79,0,0,1,229,244a1.28,1.28,0,0,1,.32-.12l.66,3c-.22.13-1,.77-.51,1.24a5.65,5.65,0,0,1-1-1.75,14.56,14.56,0,0,1-.71-1.72Z" transform="translate(0 0)"/><path class="cls-21" d="M226.75,246.58a4.67,4.67,0,0,1,0-1.4.65.65,0,0,1,.66-.7,5.38,5.38,0,0,1,.7.11c.27,0,.29,0,.42.17a.6.6,0,0,1-.11.6A11.15,11.15,0,0,1,226.75,246.58Z" transform="translate(0 0)"/><path class="cls-22" d="M228.54,244.77a1.13,1.13,0,0,1-1.51.64,1,1,0,0,0,1,.39A.69.69,0,0,0,228.54,244.77Z" transform="translate(0 0)"/><path class="cls-13" d="M227,250.31c0-.12.26-.65.29-.75a3.94,3.94,0,0,0,2.61,1.12c0,.11-.24.73-.29.85a2.56,2.56,0,0,0,0,.73c.15,2.17-1.13,7.28-3,10.87-.72,1.39-4.3,1-4.22-1.42.06-1.51,1.9-5.77,2.36-6.91s1.11-2.61,1.8-4C226.63,250.57,226.88,250.52,227,250.31Z" transform="translate(0 0)"/><path class="cls-23" d="M199.16,331.26a7,7,0,0,1-.27,1.11,13.55,13.55,0,0,0-.65,1.79c-.35,1.25,0,2.92-.49,4.68a1.88,1.88,0,0,0,.19,1.89,3.16,3.16,0,0,0,2.41,1.56,1.82,1.82,0,0,0,1.22-.58,3,3,0,0,0,.81-2.09,16.32,16.32,0,0,1-.09-2.41c.07-.86.25-1.34.27-2.28s0-2.38,0-3Z" transform="translate(0 0)"/><path class="cls-23" d="M208.26,326.13a5.87,5.87,0,0,0-.67,2.5c.17.66.63.92,1.12,1.37l.36.08c.89.49,1.14,2.19,2,3a6.14,6.14,0,0,0,2.89,1.07c1.24.24,2.44-.11,2.16-1.09-.71-2.42-4.08-5.16-4-7.86Z" transform="translate(0 0)"/><path class="cls-13" d="M214.25,308.87c-.29,4.64-1.93,13.07-2,17.64-1.46,1-3.37.75-4.09-.47-.3-4.21-.62-9.86-.58-12.17a18.13,18.13,0,0,1,.86-5.41c-.47-5.08-3.12-12-2.21-16.78.4-2.1,1.88-4.36,2.36-6.09,1.51,2,5.77,2.3,7.95,1.75-.06,1.25.24.94.11,2.25-.56,5.43-1.48,11.25-2,16.92A7.62,7.62,0,0,1,214.25,308.87Z" transform="translate(0 0)"/><path class="cls-12" d="M207.5,312.24c-1.05,4.64-3.88,15.25-4.67,19.82-1.54.83-3.45.4-3.93-.82.17-4.2.41-11.12.83-13.43a29.87,29.87,0,0,1,2.23-6.54c.34-5.07-1-12.14.72-16.92.73-2.1,2.58-4.35,3.34-6.08.87,1.42,2,2,5.08,1.77.31,0,3-1.85,3.82-2.06-1.36,6.45-4.83,14.87-6.65,21.9A8.18,8.18,0,0,1,207.5,312.24Z" transform="translate(0 0)"/><path class="cls-6" d="M205.27,268.73c1.69-.75,7.56-3.76,9.16-3.38a5.2,5.2,0,0,1,3.84,2.91,15,15,0,0,1,.57,7.95c-.21,1.31-.62,2.56-1,4-.43,1.85-.69,8.31-1.28,10.09-1.88,2.8-9.28,2.22-12.48-.44.51-1,.19-8.91-.07-9.7-1-2.9-2.06-6.06-1.85-8.16C202.38,270.26,203.93,269.32,205.27,268.73Z" transform="translate(0 0)"/><path class="cls-12" d="M214.14,265.22a21.79,21.79,0,0,0-5.8,1.47c-3.51,1.44-7,3.16-7.12,5.36-.18,3.69,2.49,6.82,2.6,11,.09,3.54-4.09,9.15-8.28,10.82.45,1.73,2.74,3.77,4.45,3.42,4.92-2,14.14-14.18,9.18-28.75-.37-1.08,1.4-1.4,3.3-1.81S214.89,265.21,214.14,265.22Z" transform="translate(0 0)"/><path class="cls-12" d="M216.78,289.55a81.28,81.28,0,0,0,1.32-8.06,58.39,58.39,0,0,0,1.12-8.32c0-3.15-.51-6-2.56-7.5-1-.71-2-.58-4.95,0l.08,1.11c5.15,2.09,6.13,7.39,6,12.91C217.65,283.16,217,286.64,216.78,289.55Z" transform="translate(0 0)"/><path class="cls-15" d="M214.49,270.57c1.5,3.39.6,4.79-.61,7.14-1.32,2.55-.67,5.6-.29,8.86a10.15,10.15,0,0,0,3,2.62,15.35,15.35,0,0,1,.94-4,8.87,8.87,0,0,1-1-5.13c.45-2.91,1.95-5.43-1.25-9.81.18-1.21,0-1.46-.26-1.59s0-.22-.9,0c-.57.16-1.15.32-1,.92S213.55,270.21,214.49,270.57Z" transform="translate(0 0)"/><path class="cls-22" d="M209,266.55c-.12,1.47,4.31,3.72,4.83,2.09.32-1,.07-4.13.44-5.49l-3.83-1.9-1.4-.55C209.51,263,209.86,264.63,209,266.55Z" transform="translate(0 0)"/><path class="cls-18" d="M213.84,268.57c.18-.44.11-1.62.24-2.26.53.07,1.25,1.86,1.69,2.79A2.85,2.85,0,0,0,213.84,268.57Z" transform="translate(0 0)"/><path class="cls-18" d="M209.33,265.55c-.07,1.23,2.9,2.61,4.7,3-.45.54-1,1.22-1,1.76-1.3-.36-3.68-1.14-4.57-2.79C207.83,266.43,208.74,266,209.33,265.55Z" transform="translate(0 0)"/><path class="cls-24" d="M213.58,256.16c.84.29,1.09,1,1.24,2.21a7.54,7.54,0,0,0-1.07-1.32Z" transform="translate(0 0)"/><path class="cls-21" d="M213.66,265.38c-.58-.13-2-.31-2.49-.45-1.17-.32-1.39-1.21-2.17-2.43a2.57,2.57,0,0,1-1.84-1.16,4.14,4.14,0,0,1,.21-4,3.7,3.7,0,0,1,2.74-1.75c2.36-.36,3.73.43,4.57,2.25a4.86,4.86,0,0,1,.28,1c0,.42-.05.52,0,.8a1.29,1.29,0,0,0,.31.62,8.14,8.14,0,0,1,.46,4.24A2.23,2.23,0,0,1,213.66,265.38Z" transform="translate(0 0)"/><path class="cls-25" d="M212.72,258.23c-.62-.12-2.94-.56-4-.81s-2.18-.5-2.76.28a4.66,4.66,0,0,0,.2,3.25,6.75,6.75,0,0,0,2.93,2.64c.5.29,0-1.33,0-1.71.38.52.66.71.86.7s.32,0,.1-.72c-.32-1.13.17-1.47-.31-2.14s0-.57.1-.84A7.68,7.68,0,0,0,212.72,258.23Z" transform="translate(0 0)"/><path class="cls-21" d="M208.5,261.35c-1-.06-.68.95-.37,1.53.21.39.55.26.77.56a.83.83,0,0,0,.88.37c.53-.16,0-.86-.17-1.15C209.53,262.13,209.12,261.38,208.5,261.35Z" transform="translate(0 0)"/><path class="cls-26" d="M211.78,261.56a1.66,1.66,0,0,1,1.26-.7A1.16,1.16,0,0,0,211.78,261.56Z" transform="translate(0 0)"/><path class="cls-26" d="M214.28,260.12a.67.67,0,0,1,.65-.53,1,1,0,0,0-.63.6Z" transform="translate(0 0)"/><path class="cls-26" d="M214.32,260.59a2.4,2.4,0,0,0,.71.84c.59.37.5.66,0,1,.51-.43.37-.56-.07-.93A2.44,2.44,0,0,1,214.32,260.59Z" transform="translate(0 0)"/><path class="cls-26" d="M212.51,261.47c.18,0,.17-.29.07-.41a.2.2,0,0,0-.21-.06.25.25,0,0,0-.19.23A.27.27,0,0,0,212.51,261.47Z" transform="translate(0 0)"/><path class="cls-25" d="M213.65,254.18c-.43.38-1,.07-3,0s-4.75,1-4.66,3.44a1.27,1.27,0,0,0,0,.2,19,19,0,0,1,2.85.7,6.25,6.25,0,0,0,4.26-.22C214.43,257.46,215.2,255.32,213.65,254.18Z" transform="translate(0 0)"/><path class="cls-26" d="M214.76,260.2c.18-.05.16-.3.07-.42a.2.2,0,0,0-.21-.06.25.25,0,0,0-.19.23A.28.28,0,0,0,214.76,260.2Z" transform="translate(0 0)"/><path class="cls-27" d="M215.4,263c-.09,0-.11.08-.2.15a.77.77,0,0,0-.31.18,1.64,1.64,0,0,1-1.13.48c.54.06,1.33.29,1.7-.21.1-.14,0-.32.06-.43S215.57,263,215.4,263Z" transform="translate(0 0)"/><path class="cls-26" d="M215.43,263.21a2.07,2.07,0,0,1-1.23.62,2,2,0,0,0,1.25-.42l0-.18Z" transform="translate(0 0)"/><path class="cls-16" d="M203.87,304.39c.1-.38-.05-.32-.2-.54l-.08-.08-2.52-2.39c-1.65-1.33-3.34,2-4.31,4.67l2.14,2.09,4-1Z" transform="translate(0 0)"/><path class="cls-16" d="M198.05,314.39l1.63-6.19.47-2-10.39-10.38L187.58,304a1.73,1.73,0,0,0-.07.58.87.87,0,0,0,.06.32.78.78,0,0,0,.05.14.81.81,0,0,0,.17.23l10.39,10.38C197.91,315.37,197.9,314.94,198.05,314.39Z" transform="translate(0 0)"/><path class="cls-28" d="M204.3,305.09l-4.15,1.11L198,314.36c-.3,1.13.38,1.79,1.52,1.49h0a4,4,0,0,0,2.6-2.58Z" transform="translate(0 0)"/><polygon class="cls-29" points="193.31 306.85 193.96 306.68 193.41 308.74 192.75 308.91 193.04 307.73 193.31 306.85"/><path class="cls-15" d="M193.65,293.24a1.42,1.42,0,0,0-.5-.3,2.61,2.61,0,0,0-1.8.27,4.87,4.87,0,0,0-1.22.83,4.62,4.62,0,0,0-1.27,1.85l-.08.23-.65,2.44,4,7.56.92.92,5.52,1.88.08,0,.33-1.12a11.22,11.22,0,0,1,1.49-3.1c.71-.74,2.73-1.88,3.62-1.05Z" transform="translate(0 0)"/><path class="cls-28" d="M203.3,303.28c.85.11,1.28.83,1,1.89l-.8,3-.89.23.79-3a1,1,0,0,0-.17-1c-.66-.66-2,.22-2.48.69a2.74,2.74,0,0,0-.69,1.16l-.65,2.43-.89.23.65-2.42a4.93,4.93,0,0,1,1.6-2.48A3.5,3.5,0,0,1,203.3,303.28Z" transform="translate(0 0)"/><polygon class="cls-29" points="193.31 306.85 193.55 306.79 193 308.85 192.75 308.91 193.04 307.73 193.31 306.85"/><polygon class="cls-30" points="191.99 305.51 192.77 306.38 193.31 306.85 193.55 306.79 192.23 305.45 191.99 305.51"/><polygon class="cls-31" points="191.99 305.51 193.31 306.85 192.75 308.91 191.43 307.57 191.99 305.51"/><path class="cls-32" d="M196.18,296.2l0-.08h0a.43.43,0,0,1,0-.07h0l0-.06h0l.05-.06.08-.06h0l.09,0-1,.26-.09,0h0l-.08.06h0l-.05.06h0l0,0v0h0l0,0v0h0v0l0,0v0h0l0,0s0,0,0,0h0l-.12.45,1-.26.12-.45,0-.09Z" transform="translate(0 0)"/><path class="cls-15" d="M197.29,295.45l0-.05,0,0h0l-.05,0a.1.1,0,0,0,0,0h0l0,0,0,0h-.05l-.06,0,0,0h0l-.06,0h-.26l-.12,0-1,.26a1.48,1.48,0,0,1,.94.46l0,0,1.42,1.4h0a3,3,0,0,1,.74,2.39l.09,0h-.07l-.12.45,1-.26.13-.45h0v0h0v0h0s0-.05,0-.07h0c0-.07,0-.14,0-.22v-.07a4.41,4.41,0,0,0,0-.52,3.76,3.76,0,0,0-.2-.73.79.79,0,0,1,0-.09l0-.08a2.79,2.79,0,0,0-.48-.73h0l-1.49-1.48Z" transform="translate(0 0)"/><path class="cls-16" d="M197.84,297.22l-1.49-1.48a.87.87,0,0,0-1.58.42l-.12.44.41.41.12-.45c.15-.56.61-.67,1-.26l1.49,1.47a2,2,0,0,1,.48,1.76L198,300l.41.41.12-.45A3.07,3.07,0,0,0,197.84,297.22Z" transform="translate(0 0)"/><path class="cls-22" d="M195.58,293.25c0,2.18-.62,3.2-.52,3.68a13.29,13.29,0,0,0,2.37,2.79c.18.13.65-.06.72-.14.33-.41,0-1.07.21-2a.42.42,0,0,1,.72-.27c.29.2.37.75.48,1.05,0-1.25.49-2.22-.22-3.21a3.29,3.29,0,0,1-.86-1.63Z" transform="translate(0 0)"/><path class="cls-12" d="M203.11,269.77a6,6,0,0,0-3.22,2.15c-1.64,2.52-2.67,7.53-3.77,10.75-.39,3.8-.82,6.89-.92,10.71.54.87,3.13,2.22,3.81.85.44-3.26,1.31-7.06,1.06-10.37a29.15,29.15,0,0,0,3-5.06C204,277,206.54,270.33,203.11,269.77Z" transform="translate(0 0)"/><path class="cls-7" d="M304.7,322.63l21.18-12.06c2.31-1.05,5.61-1.89,8-.67,2.14,1.12,5.67,3.4,7.24,4.29,1.18.68,5.3,3.14,2.73,4.53-7.54,4.1-15,8.72-22.66,12.88a10.76,10.76,0,0,1-5.79.89,15.29,15.29,0,0,1-6.27-1.87l-3.75-2.18c-1.66-1-2.55-2.11-2.63-3.17S303.29,323.28,304.7,322.63Z" transform="translate(0 0)"/><path class="cls-23" d="M326.09,306.19a7.65,7.65,0,0,1,.83,2.66,16.24,16.24,0,0,1-.43,5.29c-.19,1.09.11,1.65,1.14,1.4.81-.2,1.8-1.68,2.39-2.63,1.11-1.79.83-3.25,1.1-4l.46-.29a5.49,5.49,0,0,0,.95-2.55,12.63,12.63,0,0,0-.93-1.31c-1.18-1.27-1.53-1.07-2.81-1.7C327.75,304.29,327.17,305,326.09,306.19Z" transform="translate(0 0)"/><path class="cls-13" d="M312.87,270.32c0,.3,0,1.43-.11,1.77-1.45,4.41-1.5,13.67-1.79,18.2a3.46,3.46,0,0,0,.65,2.4c4.45,4.23,10.61,10.08,14.73,14.37,1.35.16,3.39-2,3-3.83-3-3.68-5.85-9.53-7.82-11.21a7.29,7.29,0,0,0-3.13-1.89c1.3-4.4,3.42-13,4-16.67C317.21,273,317.1,273,312.87,270.32Z" transform="translate(0 0)"/><path class="cls-23" d="M326,315.36a6.34,6.34,0,0,1,.55,2.8c-.24.73-.76,1-1.35,1.54l-.41.09c-1,.54-1.43,2.45-2.38,3.31a7.34,7.34,0,0,1-3.3,1.2c-1.39.27-2.7-.13-2.31-1.22,1-2.71,4.91-5.78,5.08-8.81Z" transform="translate(0 0)"/><path class="cls-12" d="M320,296c.32,5.2,1.25,15,1.29,20.12,1.6,1.09,3.88.71,4.66-.87.34-4.71.71-12.11.78-14.69a11,11,0,0,0-1.22-5.79c.52-5.69,3.61-12.67,2.6-18-.44-2.35-2.09-4.88-2.62-6.82a12,12,0,0,1-9.85-.32c.35,7.22,3.17,15.87,3.92,23.75A8.68,8.68,0,0,0,320,296Z" transform="translate(0 0)"/><path class="cls-13" d="M328.33,279.89a12.87,12.87,0,0,0-.18-3.13c-.44-2.35-2.09-4.88-2.62-6.82a10.37,10.37,0,0,1-3.39.85C323,274,324.27,278.65,328.33,279.89Z" transform="translate(0 0)"/><path class="cls-6" d="M327.58,249c-1.8-1-8-4.94-9.81-4.67a5.91,5.91,0,0,0-4.55,2.87c-2,3.71-1.2,7.28-.57,11.88.4,2.89.09,9,.15,12.24,1.15,3.84,9.95,4.15,14,1.35-.57-1.4-1-5.69.95-10.36,1.33-3.15,3-7,2.94-9.38C330.64,251,329,249.76,327.58,249Z" transform="translate(0 0)"/><path class="cls-12" d="M312.78,270c-.47-5.21.1-8.21-.11-10.18-.42-3.79-1.32-7.63-.15-11.46a5.71,5.71,0,0,1,2.08-3.11c1-.74,2-.6,5.1,0l-.09,1.15c-5.29,2.14-6.33,7.76-6.16,13.44C313.56,263.35,312.79,266,312.78,270Z" transform="translate(0 0)"/><path class="cls-12" d="M317.47,244.82a22.67,22.67,0,0,1,6,1.51c3.61,1.49,7.35,3.71,7.46,6,.18,3.79-2.34,7.3-3.28,11.91-.73,3.57,1.53,9.36,5.76,11.09-.47,1.77-3.56,3.19-5.32,2.83-5.06-2.07-10.58-14.92-5.48-29.91.38-1.11-1.45-1.45-3.4-1.87S316.7,244.81,317.47,244.82Z" transform="translate(0 0)"/><path class="cls-13" d="M330.76,251.61a2.2,2.2,0,0,1,.15.7c.18,3.79-2.34,7.3-3.28,11.91a11,11,0,0,0,1.76,7.56c-3.17-1-5.93-2.2-7.46-5.13a18.57,18.57,0,0,1-1.37-6.78l3.14-5.06Z" transform="translate(0 0)"/><path class="cls-15" d="M317.22,250.16c-1.54,3.49-.62,4.93.63,7.35,1.36,2.63.7,5.76.3,9.12a10.6,10.6,0,0,1-3.08,2.7,15.49,15.49,0,0,0-1-4.14,9.09,9.09,0,0,0,1.07-5.28c-.47-3-2-5.59,1.29-10.09-.19-1.26,0-1.51.26-1.64s.05-.23.93,0c.58.17,1.18.32,1,1C318.46,249.63,318.2,249.8,317.22,250.16Z" transform="translate(0 0)"/><path class="cls-22" d="M317.51,246.7c0-.18-.09-.36-.14-.56-.13-.55,0-1.65-.21-2.93l4.87-1.06,1.06-.32a8.07,8.07,0,0,0,.09,4.69c-.14,1.73-3.63,1.77-5.48,1.81C317.58,247.88,317.64,247.26,317.51,246.7Z" transform="translate(0 0)"/><path class="cls-18" d="M317.7,248.34c0-.27,0-.78,0-1.23s-.14-1.44-.09-1.69c-.42,0-1.16,2.2-1.82,3.05A2.48,2.48,0,0,1,317.7,248.34Z" transform="translate(0 0)"/><path class="cls-18" d="M323.14,246.14c-.42,1.66-3.49,2.19-5.46,2.19a3.54,3.54,0,0,1,.63,2c1.39-.08,3.74-.21,5-1.68A1.69,1.69,0,0,0,323.14,246.14Z" transform="translate(0 0)"/><path class="cls-21" d="M318.13,246.14c.58-.27,2-.8,2.51-1.09,1.15-.61,1.17-1.61,1.68-3.1,1.08-.56,1.48-1.06,1.66-1.68a4.58,4.58,0,0,0-1.22-4.21,4,4,0,0,0-3.31-1.18c-2.57.2-3.82,1.37-4.26,3.51a5.86,5.86,0,0,0,0,1.11c.07.45.18.54.2.85a1.49,1.49,0,0,1-.17.73c-.34.7.11,4.18.56,4.6A2.39,2.39,0,0,0,318.13,246.14Z" transform="translate(0 0)"/><path class="cls-24" d="M317.36,238.34c.62-.28,2.95-1.32,4-1.83s2.17-1.06,3-.38a5.07,5.07,0,0,1,.59,3.49,7.29,7.29,0,0,1-2.42,3.52c-.45.43-.3-1.42-.42-1.81-.27.64-.52.91-.73.94s-.32.11-.28-.73c.06-1.28-.54-1.51-.2-2.34.27-.66-.18-.6-.32-.88C319.57,238.32,318.68,238.75,317.36,238.34Z" transform="translate(0 0)"/><path class="cls-21" d="M322.56,240.61c1-.29,1,.84.78,1.53-.13.47-.52.42-.68.78a.87.87,0,0,1-.83.61c-.6,0-.19-.91-.11-1.26C321.68,241.68,321.93,240.8,322.56,240.61Z" transform="translate(0 0)"/><path class="cls-34" d="M324.36,236.22a19.43,19.43,0,0,0-2.83,1.44c-1.53.73-3.26,1.22-4.53.81a2.7,2.7,0,0,1-1.55-1.15C314,232.36,323.4,232,324.36,236.22Z" transform="translate(0 0)"/><path class="cls-27" d="M315.73,244.07c.1,0,.13.06.24.11a1.16,1.16,0,0,1,.37.11c.23.13.24.27.58.43.1.05.08.06,0,.08a2.51,2.51,0,0,1-1.08-.23c-.16-.1-.09-.18-.16-.29S315.52,244.05,315.73,244.07Z" transform="translate(0 0)"/><path class="cls-26" d="M317.63,241.29a1.76,1.76,0,0,0,1.56.11A1.24,1.24,0,0,1,317.63,241.29Z" transform="translate(0 0)"/><path class="cls-26" d="M316.18,240.73a1.33,1.33,0,0,1-.82-.4,1,1,0,0,0,.82.48Z" transform="translate(0 0)"/><path class="cls-26" d="M316.26,241.24a2.71,2.71,0,0,1-.54,1.06c-.53.53-.36.82.27,1-.64-.33-.53-.51-.16-1A2.69,2.69,0,0,0,316.26,241.24Z" transform="translate(0 0)"/><path class="cls-26" d="M315.48,240.47a.28.28,0,0,0,.47.26A1.37,1.37,0,0,1,315.48,240.47Z" transform="translate(0 0)"/><path class="cls-26" d="M318.43,241.59a.29.29,0,0,1-.53-.12A1.79,1.79,0,0,0,318.43,241.59Z" transform="translate(0 0)"/><path class="cls-33" d="M296.87,256.73l.08-3.47c.05-.64,2.77-1.17,3.58-1.47l1.37-.54-1.12,1.88-1.42,1.33-1,1.29Z" transform="translate(0 0)"/><path class="cls-21" d="M297.51,253.61l-.56-.35a.58.58,0,0,1,.35-.44,25.69,25.69,0,0,1,3.23-1l.9-.35-.81.86A9.81,9.81,0,0,0,297.51,253.61Z" transform="translate(0 0)"/><path class="cls-11" d="M302.17,274.63c-.46-1.55-.79-2.94-1.25-4.48l10.53.24c.26-.3.84.06.94-.27h0c-.4,1.52-.74,3-1.23,4.49a2.48,2.48,0,0,1-1.24,1.5,6.12,6.12,0,0,1-3.32.75C304.93,276.8,302.8,276.43,302.17,274.63Z" transform="translate(0 0)"/><path class="cls-12" d="M309.13,270.34l2.32.05c.26-.3.84.06.94-.27h0c-.4,1.52-.74,3-1.23,4.49a2.48,2.48,0,0,1-1.24,1.5,6.17,6.17,0,0,1-3.32.75c-1.62-.05-3.67-.41-4.37-2.06,1,1.56,4.3,1.64,5.43,1.25C308.2,274.12,308.7,272.22,309.13,270.34Z" transform="translate(0 0)"/><path class="cls-13" d="M302.48,267.23a9.11,9.11,0,0,1,8.23-.08c2.3,1.29,2.35,3.42.11,4.75a9.06,9.06,0,0,1-8.22.09C300.3,270.7,300.25,268.57,302.48,267.23Z" transform="translate(0 0)"/><path class="cls-6" d="M298.07,253.54a25.67,25.67,0,0,1,1.47-6.21c.21-.54.43-1.08.68-1.61,4.27-8.33,7.89-10.24,12.91-.15.21.41.39.83.56,1.25a25.81,25.81,0,0,1,1.64,6.23,30.12,30.12,0,0,1-2.51,16.15,7.31,7.31,0,0,1-.8,1.3,3.83,3.83,0,0,1-1,.9,9.17,9.17,0,0,1-8.29.09,3.91,3.91,0,0,1-1.51-1.42c-.28-.46-.57-1.08-.77-1.49A30.42,30.42,0,0,1,298.07,253.54Z" transform="translate(0 0)"/><path class="cls-14" d="M313.13,245.57a24.28,24.28,0,0,1,1.69,4.75,25.14,25.14,0,0,1,.63,3.77,30.25,30.25,0,0,1-2.63,15.11,7.31,7.31,0,0,1-.8,1.3c-1.3,1.61-4,2.05-6,1.91a8.36,8.36,0,0,1-3.35-.92,3.56,3.56,0,0,1-1.5-1.41c1.81,1.91,5.54,2,7.86,1.15,2.51-7.14,3.64-14.32,1.7-20.69-.73.2-6.84,1.05-9.2-2L313,245.61c-.1-.22-.2-.45-.31-.67a28.61,28.61,0,0,0-2.29-3.9A24.86,24.86,0,0,1,313.13,245.57Z" transform="translate(0 0)"/><path class="cls-15" d="M300.58,245c1.33-2.65,3.32-5.79,5.72-7.57l.16-.12a.49.49,0,0,1,.26-.12.46.46,0,0,1,.26.13,21.46,21.46,0,0,1,6,7.92,2.91,2.91,0,0,1,.19.51,2.58,2.58,0,0,1-.87,2.51,6.17,6.17,0,0,1-2.4,1.35l-.36.12a10.61,10.61,0,0,1-7.2-.57,4.61,4.61,0,0,1-1.79-1.5,2.67,2.67,0,0,1-.4-1,2.28,2.28,0,0,1,0-.74A3.86,3.86,0,0,1,300.58,245Z" transform="translate(0 0)"/><path class="cls-16" d="M306.69,237.17h0a.46.46,0,0,1,.26.13,21.46,21.46,0,0,1,6,7.92,2.91,2.91,0,0,1,.19.51,2.58,2.58,0,0,1-.87,2.51l0,0h0l0,0h0l-.06.06h0l0,0h0l0,0h0l-.06.05h0a.39.39,0,0,1-.1.08h0l0,0h0l-.11.08h0l-.11.08h0l-.07,0h0l0,0h0l-.22.14h0l0,0h0l-.07,0h-.05l-.07,0h0l0,0h0l0,0h0l0,0h0l0,0h0l0,0h0l0,0h-.17l0,0h-.16a4.84,4.84,0,0,1-.6.22l-.36.12a10.61,10.61,0,0,1-7.2-.57,4.53,4.53,0,0,1-1.84-1.58c.81.83,4.29,3.49,9.87.85A40.82,40.82,0,0,0,306.69,237.17Z" transform="translate(0 0)"/><path class="cls-17" d="M306.74,252.82a4.54,4.54,0,1,0,4.64,4.53A4.59,4.59,0,0,0,306.74,252.82Z" transform="translate(0 0)"/><path class="cls-18" d="M306.74,260.36a3,3,0,1,0-3-3,3,3,0,0,0,3,3Zm0-7.36a4.36,4.36,0,1,1-4.36,4.35A4.35,4.35,0,0,1,306.74,253Z" transform="translate(0 0)"/><path class="cls-19" d="M306.74,260.36a3,3,0,1,1,3-3A3,3,0,0,1,306.74,260.36Z" transform="translate(0 0)"/><path class="cls-13" d="M306.74,254.35a3,3,0,0,0-3,3,3.43,3.43,0,0,0,0,.56,3,3,0,0,1,5.91,0,2.59,2.59,0,0,0,.05-.56A3,3,0,0,0,306.74,254.35Z" transform="translate(0 0)"/><path class="cls-19" d="M306.74,254.14a.32.32,0,0,1,0-.64.32.32,0,0,1,0,.64Z" transform="translate(0 0)"/><path class="cls-19" d="M306.74,261.21a.32.32,0,0,1-.32-.32.32.32,0,0,1,.32-.32.32.32,0,0,1,.32.32A.33.33,0,0,1,306.74,261.21Z" transform="translate(0 0)"/><path class="cls-19" d="M302.88,257.35a.32.32,0,0,0,.64,0,.32.32,0,0,0-.64,0Z" transform="translate(0 0)"/><path class="cls-19" d="M310,257.35a.32.32,0,0,0,.32.32.32.32,0,0,0,.32-.32.32.32,0,0,0-.32-.32A.33.33,0,0,0,310,257.35Z" transform="translate(0 0)"/><path class="cls-19" d="M304,254.63a.32.32,0,1,0,.45,0A.33.33,0,0,0,304,254.63Z" transform="translate(0 0)"/><circle class="cls-35" cx="309.24" cy="259.85" r="0.32"/><path class="cls-19" d="M304,260.08a.33.33,0,0,0,.45,0,.32.32,0,1,0-.45,0Z" transform="translate(0 0)"/><circle class="cls-35" cx="309.24" cy="254.85" r="0.32"/><polygon class="cls-20" points="301.08 269.4 300.99 269.24 301.09 269.42 301.08 269.4 301.08 269.4"/><path class="cls-15" d="M299.39,263.81l1.52.88c-2.53,7.06-2.26,11.2-2.37,17.42l-1.53-.88h0c-.28-2.94-.92-6.1-.78-9a14,14,0,0,1,.71-3.85A16.81,16.81,0,0,1,299.39,263.81Z" transform="translate(0 0)"/><path class="cls-16" d="M300.91,264.69l1.56,7.08a45,45,0,0,0-3.93,10.34C298,275.8,296.22,271.1,300.91,264.69Z" transform="translate(0 0)"/><path class="cls-15" d="M314.08,263.81l-1.52.88c2.53,7.06,2.26,11.2,2.38,17.42l1.52-.88h0c.27-2.94.92-6.1.78-9a14.06,14.06,0,0,0-.72-3.85A16.28,16.28,0,0,0,314.08,263.81Z" transform="translate(0 0)"/><path class="cls-16" d="M312.56,264.69,311,271.77a44.49,44.49,0,0,1,3.94,10.34C315.52,275.8,317.26,271.1,312.56,264.69Z" transform="translate(0 0)"/><path class="cls-21" d="M297,253.22l0,0h0l0,0-.09,2.33c0,.94-.3,1.47.33,2.09,1.06,1.07,1.07,1.38,1.75,1l.24-3.26-.19,0v-.19c.16,0,.32,0,.26-.21a1.83,1.83,0,0,0-.59-.71,2.68,2.68,0,0,1-.8-1.31c0-.16-.29-.19-.32-.21A.73.73,0,0,0,297,253.22Z" transform="translate(0 0)"/><path class="cls-22" d="M299.27,255c.19.38,0,3.45-.27,3.62s-.52.23-.72.11a20.86,20.86,0,0,0,.34-3.17,27.47,27.47,0,0,1-1.66-2.34c.89,1,1.28,1.62,1.85,1.89C299,255.18,299.31,255.23,299.27,255Z" transform="translate(0 0)"/><path class="cls-21" d="M311.81,269.12c-1.14.18-2.27,1.22-3.18,1.73a4.87,4.87,0,0,1-3.86.32c-.71-.24-2.12-.85-2.16-1.37l-.14-1.37c-.05-.59-.32-1.19.31-1a3.76,3.76,0,0,0,2,.28,8.75,8.75,0,0,0,1.63-.9c2.2-1.64,3,.21,4.24-.43Z" transform="translate(0 0)"/><path class="cls-21" d="M306.62,267.57c-.24-.05-1.07-.48-1.54-.3-.87.33-1.78.16-1.87-.61.63-.18,1.38-.47,1.94-.67a3.78,3.78,0,0,1,2-.26c1,.12,2,.67,3.34.32C310.11,269,306.8,267.6,306.62,267.57Z" transform="translate(0 0)"/><path class="cls-12" d="M309.39,266.09,320.14,262c1.47-3.09,3.33-7.54,5.42-10.2,1.37-1.74,3.69-2.95,5.19-.53,1,1.58,0,4.7-.87,6.1a98,98,0,0,1-6,8.61c-.14.18-.28.34-.42.49a3.63,3.63,0,0,1-2.72,1.5l-10.36,1.78C311.17,267.68,310,266.33,309.39,266.09Z" transform="translate(0 0)"/></svg>