<?xml version="1.0" encoding="utf-8"?>
<!-- Generator: Adobe Illustrator 19.0.0, SVG Export Plug-In . SVG Version: 6.00 Build 0)  -->
<svg version="1.1" xmlns="http://www.w3.org/2000/svg" xmlns:xlink="http://www.w3.org/1999/xlink" x="0px" y="0px"
	 viewBox="0 0 842 269" style="enable-background:new 0 0 842 269;" xml:space="preserve">
<style type="text/css">
	.st0{fill:#08191F;}
	.st1{fill:#1B4073;}
	.st2{fill:#1A66B1;}
	.st3{fill:#084F8F;}
	.st4{fill:#5288C7;}
</style>
<g id="Layer_1">
	<path id="XMLID_130_" class="st0" d="M795.2,143.5c0-7.9-1.4-15.2-4-21.7c-2.7-6.5-6.3-12.1-11-16.8c-4.6-4.6-10-8.2-16.2-10.8
		c-6.2-2.5-12.9-3.8-20-3.8c-7.1,0-13.7,1.3-19.9,4c-6.2,2.7-11.6,6.4-16.3,11.1c-4.6,4.7-8.3,10.3-11,16.8c-2.7,6.5-4,13.5-4,21.2
		c0,5.5,0.7,10.7,2.2,15.7l-13.2,9.1v-74H656v55.4c0,2.7-0.5,5.3-1.5,7.8c-1,2.5-2.4,4.8-4.1,6.8c-1.7,2-3.8,3.6-6.1,4.8
		c-2.3,1.2-4.8,1.8-7.4,1.8c-2.7,0-5.2-0.4-7.5-1.3c-2.3-0.9-4.4-2.2-6.1-4c-1.7-1.8-3.1-4-4.2-6.6c-1-2.7-1.5-5.8-1.5-9.3V94.3H592
		v0l0,0l-47.3,32.3c1.2,1.7,2.3,3.6,3.1,5.7c1.3,3.3,2,7.1,2,11.2c0,4.1-0.7,7.8-2,11.1c-1.3,3.4-3.2,6.2-5.5,8.6
		c-2.3,2.4-5,4.2-8.1,5.5c-3.1,1.3-6.4,2-9.9,2c-1.9,0-3.8-0.2-5.6-0.7l-24.1,16.6c3,2.2,6.3,4.1,9.8,5.6c6.2,2.7,12.8,4.1,19.9,4.1
		c7.1,0,13.8-1.4,20-4.1c6.2-2.7,11.6-6.4,16.2-11.1c4.6-4.7,8.3-10.3,11-16.8c2.7-6.5,4-13.4,4-20.9c0-5.5-0.7-10.6-1.9-15.3
		l18.3-12.5v34c0,7.2,1.2,13.6,3.5,19.4c2.3,5.8,5.6,10.7,9.6,14.7c4.1,4,8.8,7.1,14.3,9.3c5.4,2.2,11.2,3.3,17.4,3.3
		c2.9,0,5.8-0.6,8.8-1.8s5.8-2.4,8.6-3.6c-0.9,2.3-2.2,4.4-3.6,6.4s-3.2,3.7-5.2,5.1c-2,1.4-4.1,2.6-6.4,3.4
		c-2.3,0.8-4.7,1.2-7.2,1.2l-5.9-0.2v25.9h4.8c7,0,13.7-1.3,19.8-4c6.2-2.7,11.6-6.3,16.2-11c4.6-4.6,8.3-10,11-16.2
		c1.3-2.9,2.2-5.9,2.9-9.1l23.3-16.1c1.2,1.6,2.5,3.1,3.9,4.6c4.6,4.7,10.1,8.4,16.3,11.1c6.2,2.7,12.8,4.1,19.9,4.1
		c7.1,0,13.8-1.4,20-4.1c3.2-1.4,6.1-3,8.8-4.9v9h22.4L795.2,143.5L795.2,143.5z M767.4,154.7c-1.3,3.4-3.2,6.2-5.5,8.6
		c-2.3,2.4-5,4.2-8.1,5.5c-3.1,1.3-6.4,2-9.9,2c-3.5,0-6.8-0.7-9.9-2.1s-5.8-3.3-8-5.8c-2.3-2.4-4.1-5.3-5.4-8.6
		c-1.3-3.3-2-6.9-2-10.8c0-4.1,0.7-7.8,2-11.2c1.3-3.3,3.1-6.2,5.4-8.6c2.3-2.4,5-4.2,8-5.5c3.1-1.3,6.4-1.9,9.9-1.9
		c3.5,0,6.8,0.6,9.9,1.9c3.1,1.3,5.8,3.1,8.1,5.5c2.3,2.4,4.1,5.3,5.5,8.6s2,7.1,2,11.2C769.4,147.6,768.8,151.3,767.4,154.7z
		 M456.5,194.6h-68.3v-57.3c0-2.6-0.5-5.1-1.5-7.4c-1-2.3-2.4-4.4-4.1-6.1c-1.7-1.7-3.8-3.1-6.1-4.1c-2.3-1-4.8-1.5-7.4-1.5
		c-2.6,0-5.1,0.5-7.4,1.5c-2.3,1-4.3,2.4-6.1,4.1c-1.7,1.7-3.1,3.8-4.1,6.1c-1,2.3-1.5,4.8-1.5,7.4v57.3H228.6V52.1h92V79h-65.1
		v30.9h52v26.9h-52v30.9h69v-30.4c0-6.2,1.2-12,3.5-17.5c2.3-5.5,5.5-10.2,9.6-14.3c4.1-4.1,8.8-7.3,14.2-9.6
		c5.4-2.3,11.2-3.5,17.3-3.5c6.1,0,11.9,1.2,17.3,3.5c5.4,2.3,10.2,5.6,14.2,9.6c4.1,4.1,7.3,8.9,9.6,14.3
		c2.3,5.5,3.5,11.3,3.5,17.5v32.5h17.7V52.1h25.7v119.1l18-12.5l0,0c-1.4-4.8-2.1-9.9-2.1-15.2c0-7.6,1.3-14.7,4-21.2
		c2.7-6.5,6.3-12.1,11-16.8c4.6-4.7,10.1-8.4,16.3-11.1c6.2-2.7,12.8-4,19.9-4c7.1,0,13.8,1.3,20,3.8c4.1,1.6,7.7,3.8,11.1,6.3
		l-24.1,16.6c-2.2-0.6-4.6-0.9-7-0.9c-3.5,0-6.8,0.6-9.9,1.9c-3.1,1.3-5.8,3.1-8,5.5c-2.3,2.4-4.1,5.3-5.4,8.6s-2,7.1-2,11.2
		c0,3.9,0.7,7.5,2,10.8c1,2.5,2.3,4.8,3.8,6.8L456.5,194.6z"/>
</g>
<g id="Layer_5">
	<path id="XMLID_129_" class="st1" d="M118,85.2c7.4,12.8,13.5,25.1,30.7,24.8c16.1-0.2,29.4-14.1,28.8-30.2
		c-0.4-9.4-5-21.1-13.9-25.3c-5.5-2.6-12.7-2.8-18.7-3.6c-9.6-1.4-19.1-2.9-28.7-4.3c-6-0.9-13.1-2.9-19.3-1.9
		c-9.9,1.5-15.1,10-20.8,17.2c2.8-0.1,6.1,0.6,8.9,1C98.9,64.9,110.9,72.9,118,85.2z"/>
</g>
<g id="Layer_4">
	<path id="XMLID_127_" class="st2" d="M135.6,162.9c-7.4-12.8-13.5-25.1-30.7-24.8c-16.1,0.2-29.4,14.1-28.8,30.2
		c0.4,9.4,5,21.1,13.9,25.3c5.5,2.6,12.7,2.8,18.7,3.6c9.6,1.4,19.1,2.9,28.7,4.3c6,0.9,13.1,2.9,19.3,1.9
		c9.9-1.5,15.1-10,20.8-17.2c-2.8,0.1-6.1-0.6-8.9-1C154.6,183.2,142.7,175.1,135.6,162.9z"/>
</g>
<g id="Layer_3">
	<path id="XMLID_121_" class="st3" d="M206.2,94.1c-1.5-9.9-10-15.1-17.2-20.8c0.1,2.8-0.6,6.1-1,8.9c-2.1,14-10.2,25.9-22.4,33
		c-12.8,7.4-25.1,13.5-24.8,30.7c0.2,16.1,14.1,29.4,30.2,28.8c9.4-0.4,21.1-5,25.3-13.9c2.6-5.5,2.8-12.7,3.6-18.7
		c1.4-9.6,2.9-19.1,4.3-28.7C205.2,107.3,207.1,100.2,206.2,94.1z"/>
</g>
<g id="Layer_2">
	<path id="XMLID_11_" class="st4" d="M87.9,132.8c12.8-7.4,25.1-13.5,24.8-30.7C112.5,86,98.6,72.7,82.5,73.3
		c-9.4,0.4-21.1,5-25.3,13.9c-2.6,5.5-2.8,12.7-3.6,18.7c-1.4,9.6-2.9,19.1-4.3,28.7c-0.9,6-2.9,13.1-1.9,19.3
		c1.5,9.9,10,15.1,17.2,20.8c-0.1-2.8,0.6-6.1,1-8.9C67.6,151.8,75.7,139.9,87.9,132.8z"/>
</g>
</svg>
