<?xml version="1.0" encoding="UTF-8" standalone="no"?>
<!-- Created with Inkscape (http://www.inkscape.org/) -->

<svg
   xmlns:dc="http://purl.org/dc/elements/1.1/"
   xmlns:cc="http://creativecommons.org/ns#"
   xmlns:rdf="http://www.w3.org/1999/02/22-rdf-syntax-ns#"
   xmlns:svg="http://www.w3.org/2000/svg"
   xmlns="http://www.w3.org/2000/svg"
   xmlns:sodipodi="http://sodipodi.sourceforge.net/DTD/sodipodi-0.dtd"
   xmlns:inkscape="http://www.inkscape.org/namespaces/inkscape"
   version="1.1"
   id="svg10"
   width="800"
   height="320"
   viewBox="0 0 800 320"
   sodipodi:docname="logo.svg"
   inkscape:version="0.92.3 (2405546, 2018-03-11)">
  <metadata
     id="metadata16">
    <rdf:RDF>
      <cc:Work
         rdf:about="">
        <dc:format>image/svg+xml</dc:format>
        <dc:type
           rdf:resource="http://purl.org/dc/dcmitype/StillImage" />
        <dc:title></dc:title>
      </cc:Work>
    </rdf:RDF>
  </metadata>
  <defs
     id="defs14" />
  <sodipodi:namedview
     pagecolor="#ffffff"
     bordercolor="#666666"
     borderopacity="1"
     objecttolerance="10"
     gridtolerance="10"
     guidetolerance="10"
     inkscape:pageopacity="0"
     inkscape:pageshadow="2"
     inkscape:window-width="1366"
     inkscape:window-height="705"
     id="namedview12"
     showgrid="false"
     inkscape:pagecheckerboard="true"
     inkscape:zoom="1.205"
     inkscape:cx="367.63485"
     inkscape:cy="160"
     inkscape:window-x="-8"
     inkscape:window-y="-8"
     inkscape:window-maximized="1"
     inkscape:current-layer="g4553" />
  <g
     id="g4562">
    <g
       id="g4553">
      <path
         inkscape:connector-curvature="0"
         id="path30"
         style="fill:#03171e;fill-opacity:1;stroke-width:0.31999999"
         d="m 641.44173,180.30611 c 7.06745,-1.84084 12.30848,-7.60681 13.79267,-15.17421 0.91392,-4.6597 0.18192,-10.52276 -1.80035,-14.42015 -1.89744,-3.73061 -5.68519,-7.23074 -9.49559,-8.77456 -2.44608,-0.99105 -6.38844,-1.56729 -8.85404,-1.29415 -2.6416,0.29264 -6.28896,1.53497 -8.30932,2.83026 -3.80006,2.43628 -6.93878,7.05946 -8.07593,11.89554 -0.71171,3.02674 -0.48423,9.45584 0.42457,11.99835 2.4137,6.75261 7.02583,11.25779 13.23453,12.92763 2.29357,0.61685 6.73731,0.62238 9.08346,0.0113 z M 549.44,217.32943 V 207.68 h 3.46192 c 5.73418,0 9.28477,-1.45516 13.18461,-5.40353 2.22285,-2.25053 4.46294,-5.59366 4.03488,-6.02172 -0.10013,-0.10013 -1.6624,0.43431 -3.47171,1.18763 -4.55716,1.89739 -6.0042,2.22946 -9.73434,2.23382 -13.52291,0.0158 -25.33021,-8.13314 -30.10122,-20.77479 -2.00515,-5.31294 -2.09161,-6.1808 -2.30131,-23.1005 l -0.19283,-15.5591 -6.65206,4.5191 c -6.52423,4.43224 -6.64848,4.53754 -6.46576,5.47909 1.66873,8.59837 1.39507,16.27094 -0.82756,23.2 -2.45353,7.64893 -8.21667,15.4409 -14.65353,19.81211 -3.00611,2.04139 -8.19447,4.41387 -11.77319,5.3835 -2.90502,0.7871 -3.62937,0.85291 -9.3879,0.85291 -5.76864,0 -6.48173,-0.0651 -9.44,-0.86135 -4.14278,-1.11512 -12.9776,-5.48049 -12.31523,-6.08507 0.0854,-0.0779 4.01648,-2.80779 8.73577,-6.06637 l 8.58055,-5.92469 3.25945,0.15839 c 6.78007,0.32948 12.38464,-2.26295 16.07613,-7.43607 4.62055,-6.47515 5.19683,-15.73556 1.41789,-22.78522 l -1.23926,-2.31186 17.31891,-11.84814 17.31891,-11.84814 h 9.53322 9.53318 l 0.0907,22.64 c 0.10217,25.51927 -0.0322,24.09217 2.64349,28.07448 3.66041,5.44799 11.08489,7.37135 17.104,4.4309 2.24067,-1.09462 5.34099,-4.214 6.6543,-6.69521 1.9903,-3.76023 1.99805,-3.86572 2.00326,-27.25017 l 0.005,-21.2 h 9.44 9.44 v 27.2 c 0,14.96 0.0807,27.2 0.17939,27.2 0.0987,0 2.33053,-1.476 4.95968,-3.28 2.86093,-1.96304 4.71994,-3.44128 4.62999,-3.68167 -1.37037,-3.66317 -1.78032,-14.58704 -0.73024,-19.45777 3.20096,-14.84717 13.56624,-26.02104 27.60118,-29.75432 3.92003,-1.04272 11.01443,-1.41756 15.21232,-0.80374 14.2064,2.07725 25.33302,11.37922 29.87702,24.9775 2.05053,6.13636 2.10794,6.98342 2.10938,31.12 v 21.68 h -8.16 -8.16 v -3.2 c 0,-1.76 -0.0573,-3.2 -0.1273,-3.2 -0.07,0 -1.10457,0.59372 -2.29904,1.31939 -2.84966,1.73122 -5.82361,2.97769 -9.65446,4.04642 -2.91686,0.81375 -3.524,0.8693 -9.3592,0.85645 -5.75562,-0.0127 -6.48842,-0.0809 -9.44,-0.87926 -6.56339,-1.77522 -13.10333,-5.72475 -17.87027,-10.79202 l -2.42445,-2.57721 -8.57338,5.9006 -8.5734,5.90061 -0.5673,2.19251 c -2.4673,9.5354 -10.20784,18.83929 -19.5912,23.54804 -5.11331,2.56595 -9.58006,3.6621 -16.24,3.98532 l -4.08,0.19801 v -9.64943 z" />
      <path
         inkscape:connector-curvature="0"
         style="fill:#03171e;fill-opacity:1;stroke-width:0.31999999"
         d="M 255.68,145.76 V 93.12 h 34.08 34.08 v 9.92 9.92 h -24.16404 -24.16404 l 0.084,11.44 0.084,11.44 19.28462,0.0825 19.28462,0.0825 -0.0846,9.8375 -0.0846,9.8375 -19.28,0.0825 -19.28,0.0825 v 11.3575 11.3575 h 25.57869 25.57869 l 0.11747,-13.84 0.11744,-13.84 0.86365,-3.2 c 3.75824,-13.92506 15.84844,-23.8815 29.98406,-24.69231 14.69363,-0.84281 27.84778,7.91241 32.96845,21.94339 1.73712,4.75982 1.91155,6.73745 1.91155,21.67084 V 180.16 h 6.56 6.56 V 136.64 93.12 h 9.59888 9.59885 l 0.0811,43.95745 0.0811,43.95746 6.4,-4.4483 c 5.18467,-3.60359 6.39322,-4.58297 6.36422,-5.15745 -0.0195,-0.39004 -0.27107,-2.07716 -0.55868,-3.74916 -0.65949,-3.83372 -0.67351,-10.11177 -0.0314,-14.07121 1.63436,-10.07788 7.59699,-19.68998 15.68076,-25.27828 3.27693,-2.26535 8.42391,-4.6641 12.19719,-5.6845 2.92137,-0.79004 3.60841,-0.85079 9.5479,-0.84432 5.85402,0.006 6.66135,0.0772 9.46362,0.8299 1.68496,0.45261 4.14381,1.27262 5.46406,1.82225 2.76403,1.15068 7.71424,4.10666 7.56989,4.52032 -0.11632,0.33326 -17.21238,12.14584 -17.5784,12.14584 -0.1392,0 -1.33574,-0.16103 -2.65904,-0.35785 -4.66794,-0.69427 -9.77059,0.61836 -13.53322,3.48133 -4.93068,3.75174 -7.53587,9.42727 -7.52633,16.39652 0.006,4.64696 1.06573,8.44963 3.25955,11.70022 l 0.92355,1.36846 L 442.2234,186.05434 424.34342,198.4 H 399.05171 373.76 l -0.004,-22.16 c -0.004,-24.02233 0.009,-23.81959 -1.78346,-27.11337 -1.13836,-2.09155 -4.06649,-4.82173 -6.30918,-5.8827 -7.62883,-3.60901 -16.91402,0.54646 -19.4312,8.6962 -0.60406,1.95567 -0.63235,3.04096 -0.63235,24.25358 L 345.6,198.4 h -44.96 -44.96 z"
         id="path26" />
    </g>
    <g
       id="g4549">
      <path
         inkscape:connector-curvature="0"
         style="fill:#1fa5df;fill-opacity:1;stroke-width:0.31999999"
         d="m 162.07948,198.00294 c -4.12828,-0.51599 -7.11659,-2.22918 -10.13654,-5.81125 -3.57264,-4.23764 -5.70294,-10.04428 -5.70294,-15.54473 0,-3.57356 0.53729,-5.94786 2.09177,-9.24368 4.2141,-8.93471 14.20932,-14.04192 23.59056,-12.05395 5.04841,1.06981 9.03949,4.24517 15.94792,12.6884 6.59951,8.0657 11.60172,11.50052 20.06999,13.7813 2.04003,0.54944 3.48335,0.66919 8.45828,0.70173 3.29919,0.0216 5.99919,0.15224 6,0.29034 0.003,0.43456 -2.8978,5.40796 -4.58059,7.85457 -2.65139,3.85488 -5.90168,6.2391 -9.69568,7.1122 -1.80145,0.41455 -42.91869,0.61555 -46.04277,0.22507 z"
         id="path28" />
      <path
         inkscape:connector-curvature="0"
         style="fill:#1fa5df;fill-opacity:1;stroke-width:0.31999999"
         d="m 214.51613,165.11227 c -7.6575,-1.38165 -14.30553,-6.95548 -16.78431,-14.07227 -0.566,-1.62503 -0.72908,-2.81495 -0.74558,-5.44 -0.0265,-4.22289 0.47098,-6.26257 3.51245,-14.4 2.96745,-7.93939 3.46415,-10.47668 3.25739,-16.64 -0.12554,-3.74215 -0.31815,-5.19729 -0.99541,-7.52 -0.88638,-3.03992 -3.5765,-8.751232 -5.48415,-11.643248 -0.62518,-0.947786 -1.04805,-1.811786 -0.93971,-1.92 0.43854,-0.438038 9.91448,-0.131197 12.06605,0.390714 5.45286,1.322713 9.24057,4.846428 12.81259,11.919594 1.08544,2.14934 10.64335,18.72609 14.66767,25.43885 3.92638,6.5494 4.74092,8.70274 4.75013,12.55767 0.0129,5.39165 -2.31637,10.30335 -7.16087,15.10008 -3.15222,3.12114 -5.28001,4.44183 -8.99238,5.58144 -2.56134,0.78628 -7.43755,1.10299 -9.96387,0.64717 z"
         id="path24" />
      <path
         inkscape:connector-curvature="0"
         style="fill:#1fa5df;fill-opacity:1;stroke-width:0.31999999"
         d="m 130.11429,157.99219 c -3.44321,-5.85051 -4.67429,-9.2431 -4.67429,-12.88134 0,-3.45068 1.1925,-6.40589 5.36888,-13.30497 2.12916,-3.5172 11.23294,-19.3073 15.45832,-26.81174 3.46253,-6.149583 6.4439,-8.57437 12.08588,-9.829593 3.1077,-0.691398 8.4912,-0.459085 11.88169,0.51273 7.27986,2.086614 12.77228,7.514993 15.01462,14.839553 2.91129,9.50966 -1.35563,20.17955 -9.67329,24.18912 -3.37028,1.62466 -6.04222,2.32862 -13.43604,3.53991 -10.00232,1.63862 -15.13647,3.91015 -20.69978,9.15829 -3.29848,3.11162 -6.30686,7.31767 -8.87819,12.41266 l -0.63428,1.25682 z"
         id="path20" />
    </g>
  </g>
</svg>
