<?xml version="1.0"?>
<svg xmlns="http://www.w3.org/2000/svg" height="512px" viewBox="0 0 60 60" width="512px"><g><script xmlns="" class="active-path" style=""/><g id="044---Bank-Statement"><path id="Shape" d="m19.08 24c1.1045695 0 2-.8954305 2-2v-2c0-1.1045695-.8954305-2-2-2h-12c-1.1045695 0-2 .8954305-2 2v2c0 1.1045695.8954305 2 2 2zm-12-4h12v2h-12z" data-original="#000000" class="active-path" fill="#FFFFFF"/><path id="Shape" d="m9.08 26c-1.65685425 0-3 1.3431458-3 3s1.34314575 3 3 3c1.6568542 0 3-1.3431458 3-3s-1.3431458-3-3-3zm0 4c-.55228475 0-1-.4477153-1-1s.44771525-1 1-1 1 .4477153 1 1-.44771525 1-1 1z" data-original="#000000" class="active-path" fill="#FFFFFF"/><path id="Shape" d="m9.08 33c-1.65685425 0-3 1.3431458-3 3s1.34314575 3 3 3c1.6568542 0 3-1.3431458 3-3s-1.3431458-3-3-3zm0 4c-.55228475 0-1-.4477153-1-1s.44771525-1 1-1 1 .4477153 1 1-.44771525 1-1 1z" data-original="#000000" class="active-path" fill="#FFFFFF"/><path id="Shape" d="m9.08 40c-1.65685425 0-3 1.3431458-3 3s1.34314575 3 3 3c1.6568542 0 3-1.3431458 3-3s-1.3431458-3-3-3zm0 4c-.55228475 0-1-.4477153-1-1s.44771525-1 1-1 1 .4477153 1 1-.44771525 1-1 1z" data-original="#000000" class="active-path" fill="#FFFFFF"/><path id="Shape" d="m17.08 26c-1.6568542 0-3 1.3431458-3 3s1.3431458 3 3 3 3-1.3431458 3-3-1.3431458-3-3-3zm0 4c-.5522847 0-1-.4477153-1-1s.4477153-1 1-1 1 .4477153 1 1-.4477153 1-1 1z" data-original="#000000" class="active-path" fill="#FFFFFF"/><path id="Shape" d="m17.08 33c-1.6568542 0-3 1.3431458-3 3s1.3431458 3 3 3 3-1.3431458 3-3-1.3431458-3-3-3zm0 4c-.5522847 0-1-.4477153-1-1s.4477153-1 1-1 1 .4477153 1 1-.4477153 1-1 1z" data-original="#000000" class="active-path" fill="#FFFFFF"/><path id="Shape" d="m17.08 40c-1.6568542 0-3 1.3431458-3 3s1.3431458 3 3 3 3-1.3431458 3-3-1.3431458-3-3-3zm0 4c-.5522847 0-1-.4477153-1-1s.4477153-1 1-1 1 .4477153 1 1-.4477153 1-1 1z" data-original="#000000" class="active-path" fill="#FFFFFF"/><path id="Shape" d="m48 40c0 .5522847.4477153 1 1 1s1-.4477153 1-1c0-2.472-2.167-4.526-5-4.925v-1.075c0-.5522847-.4477153-1-1-1s-1 .4477153-1 1v1.075c-2.833.4-5 2.453-5 4.925s2.167 4.526 5 4.925v5.968c-1.72-.335-3-1.5-3-2.893 0-.5522847-.4477153-1-1-1s-1 .4477153-1 1c0 2.472 2.167 4.526 5 4.925v1.075c0 .5522847.4477153 1 1 1s1-.4477153 1-1v-1.075c2.833-.4 5-2.453 5-4.925s-2.167-4.526-5-4.925v-5.968c1.72.335 3 1.499 3 2.893zm-8 0c0-1.394 1.28-2.558 3-2.893v5.786c-1.72-.335-3-1.499-3-2.893zm8 8c0 1.394-1.28 2.558-3 2.893v-5.786c1.72.335 3 1.499 3 2.893z" data-original="#000000" class="active-path" fill="#FFFFFF"/><path id="Shape" d="m38 29.178v-8.178l13.471 6.024c3.0251397 1.3530976 6.5744024-.0023603 7.9275-3.0275s-.0023603-6.5744024-3.0275-7.9275l-18.371-8.216v-.853c.0033061-2.76005315 2.2399468-4.99669388 5-5 .5522847 0 1-.44771525 1-1s-.4477153-1-1-1h-23.92c-3.8641657.00440864-6.9955914 3.13583434-7 7v7h-8c-1.65685425 0-3 1.3431458-3 3v30c0 1.6568542 1.34314575 3 3 3h8v2h-9.9c-.59171071-.003075-1.15416245.257069-1.53498228.7099567s-.54058644 1.0516376-.43601772 1.6340433c.64717002 3.2834167 3.52441405 5.6518773 6.871 5.656h23.92c1.8972939-.0039653 3.7112011-.7802193 5.024-2.15 6.4816301 3.7356023 14.6869852 2.4778231 19.7520583-3.0277458 5.0650731-5.5055688 5.6358163-13.7871214 1.3739018-19.9354821-4.2619144-6.1483606-12.2171473-8.5198858-19.1499601-5.7087721zm-7.936-15.523 2.071-4.612 2.193-.025-2.811 6.282zm-4.055-4.6h3.93l-1.327 2.956zm8.333 4.835c5.958 2.664 5.586 2.536 5.885 2.536.4721023.0004918.8802363-.3292553.9789412-.7909242.098705-.4616689-.1389113-.9294776-.5699412-1.1220758l-5.477-2.453 1.225-2.739 13.692 6.124-1.224 2.738-4.565-2.041c-.3261835-.1457644-.7053538-.1064394-.9946812.1031616s-.4448561.5576347-.408.913c.0368561.3553654.2604977.664074.5866812.8098384l4.564 2.041-1.225 2.739-13.692-6.124zm19.385 3.192-3.265 7.3-1.826-.816 3.266-7.3zm3.935 3.033c.5706893 1.5120808.1781113 3.2189588-.9958385 4.3297766-1.1739499 1.1108178-2.8999021 1.4085409-4.3781615.7552234l3.266-7.3c.9675069.4290902 1.7255178 1.2241387 2.108 2.211zm-54.582 26.885v-30c0-.5522847.44771525-1 1-1h18c.5522847 0 1 .4477153 1 1v30c0 .5522847-.4477153 1-1 1h-18c-.55228475 0-1-.4477153-1-1zm-.9 7.006h21.9c.2200299 1.5193084.9357773 2.9233827 2.036 3.994012l-19.036-.000012c-2.37554917.0051729-4.42499061-1.6660132-4.898-3.994zm23.878-.278c-.1328727-.990437-.9786909-1.7293519-1.978-1.728h-10v-2h8c1.6568542 0 3-1.3431458 3-3v-30c0-1.6568542-1.3431458-3-3-3h-8v-7c.0033061-2.76005315 2.2399468-4.99669388 5-5h19.02c-1.3506945 1.3208862-2.1083679 3.13280814-2.1 5.022-.0379327-.00929147-.0763163-.01663442-.115-.022l-.018.021h-12.067c-.3937817.01117149-.7462404.2472463-.9064524.60713649-.1602119.3598902-.0997669.77977696.1554524 1.07986351 9.258 10.5 7.965 9.06 8.343 9.33l4.608 2.067v10.06c-4.6373696 2.6694936-7.6280687 7.485598-7.9645742 12.8258374-.3365055 5.3402393 2.0259818 10.493665 6.2915742 13.7241626-1.3680786 1.2252825-3.2985474 1.600226-5.0258189.9761351-1.7272714-.624091-2.9722425-2.146372-3.2411811-3.9631351zm17.942 4.272c-5.6624714 0-10.7673795-3.4109905-12.9343135-8.6424319-2.166934-5.2314415-.9691534-11.2530911 3.0348186-15.257063 4.0039719-4.003972 10.0256215-5.2017526 15.257063-3.0348186 5.2314414 2.166934 8.6424319 7.2718421 8.6424319 12.9343135-.0082673 7.7285595-6.2714405 13.9917327-14 14z" data-original="#000000" class="active-path" fill="#FFFFFF"/><path id="Shape" d="m35.012 37.511c-.4771938-.2776527-1.0891112-.1160564-1.367.361-1.9888852 3.4364509-2.1868489 7.6242573-.531 11.233.1410022.3373511.4548783.5708533.8185236.6089252.3636453.038072.7190781-.1253566.9268951-.426188.207817-.3008313.2348825-.691099.0705813-1.0177372-1.3821661-3.0177469-1.2166894-6.5181019.444-9.392.2774835-.4774555.1154184-1.0894527-.362-1.367z" data-original="#000000" class="active-path" fill="#FFFFFF"/><path id="Shape" d="m52.988 37.511c-.4774184.2775473-.6394835.8895445-.362 1.367 1.6606894 2.8738981 1.8261661 6.3742531.444 9.392-.1643012.3266382-.1372357.7169059.0705813 1.0177372.207817.3008314.5632498.46426.9268951.426188.3636453-.0380719.6775214-.2715741.8185236-.6089252 1.6558489-3.6087427 1.4578852-7.7965491-.531-11.233-.2778888-.4770564-.8898062-.6386527-1.367-.361z" data-original="#000000" class="active-path" fill="#FFFFFF"/></g></g> </svg>
