<svg viewBox="0 0 61 57" xmlns="http://www.w3.org/2000/svg"><g style="stroke:#212529;stroke-width:4;stroke-linejoin:round;fill-rule:evenodd;stroke-linecap:round;fill:none" transform="translate(1 1)"><path d="m41.008 9h-24v-7c0-1.105.895-2 2-2h20c1.105 0 2 .895 2 2z"/><path d="m.0079 12.015c0-1.665 1.35-3.0152 3.015-3.0152h51.97c1.665 0 3.015 1.3502 3.015 3.0152v35.97c0 1.665-1.35 3.015-3.015 3.015h-51.97c-1.6651 0-3.0151-1.35-3.0151-3.015v-35.97z"/><path d="m40.008 9 4 4"/><path d="m54.008 19-4 4-6-6v-4h4z"/><path d="m8.0079 55c-2.209 0-4-1.791-4-4h8.0001c0 2.209-1.791 4-4.0001 4z"/><path d="m50.008 55c2.209 0 4-1.791 4-4h-8c0 2.209 1.791 4 4 4z"/><path d="m24.008 26h10v-8h-10z"/><path d="m26.008 18h6v-9h-6z"/><path d="m26.008 51h6v-25h-6z"/></g></svg>